<svg version="1.1" id="Layer_1" xmlns="http://www.w3.org/2000/svg" xmlns:xlink="http://www.w3.org/1999/xlink" x="0px" y="0px" viewBox="0 0 478 286" style="enable-background:new 0 0 478 286;" xml:space="preserve">

		<path class="st0" d="M424.5,226.2c-1.2,0-2.3,0-3.4,0c-7.1-0.2-14.3-0.4-21.2-0.7c-5.9-0.2-12-0.5-18-0.6    c-4.3-0.1-8.7-0.3-12.5-0.5c-5.7-0.3-11.5-0.5-17.2-0.8c-4.5-0.2-9-0.4-13.5-0.6c-1.7-0.1-3.4-0.1-5.1-0.2    c-2.2-0.1-4.4-0.2-6.7-0.3c-4-0.2-8-0.4-12.1-0.7c-4.9-0.3-9.8-0.5-14.7-0.8c-2.9-0.1-5.9-0.3-8.8-0.4c-2.8-0.1-5.6-0.2-8.4-0.4    c-5-0.2-9.9-0.5-14.9-0.8c-4.3-0.2-8.6-0.5-12.9-0.7c-2.5-0.1-5.1-0.2-7.6-0.3c-2.9-0.1-5.8-0.2-8.7-0.4    c-7.2-0.4-14.4-0.8-21.6-1.2l-4.5-0.3c-1.6-0.1-3.2-0.2-4.8-0.2c-3.9-0.2-8-0.3-12.1-0.9c-6.3-0.8-9.4-3.7-10.8-6    c-1.3-2.1-2.5-5.6-0.8-10.8c0.8-2.5,1.1-5.6,0.9-8.9c-0.1-1.6-0.4-1.7-0.8-1.8c-1.3-0.5-2.6-1-3.8-1.5c-0.9-0.4-1.8-0.8-2.7-1.1    c-3.4-1.2-6.8-2.6-10-3.9c-10-4-19.5-7.7-29.7-9c-1.8,0.3-2.8,0.6-3.6,1.2c-5.6,4.6-10.4,9.1-14.8,13.9c-2,2.1-3.9,4.2-6.1,6    c-4.7,3.9-8.1,4.4-13.7,2c-2.6-1.1-5-2.5-7.6-4C79.9,184.2,69,175.4,60,165.6c-9.7-10.6-17.7-22.8-23.6-36.2    c-1-2.4-2.1-4.8-3.1-7.1c-2.4-5.5-4.8-11.1-7.4-16.6c-4.4-9.3-5.9-18.3-4.5-27.3c1.4-8.7,5.8-15.1,12.9-18.3    c10.1-4.6,20.5-6.4,31-5.4c4.7,0.5,9.7,1.2,14.5,4c3.9,2.3,6,5.2,6.3,8.6c0.2,2.3-0.5,5.8-4.7,9.3c-1.2,1-2.3,2-3.2,3    c-2.9,3.1-3.4,6.3-1.5,10.2c3.7,7.8,7.5,15.8,11.4,23.8c5.3,10.7,10.7,21.5,16,32l3,6c1.6,3.2,3.8,2.8,4.5,2.7    c1.4-0.3,2.9-1.2,4.8-3c6.8-6.5,12.6-13.9,17.3-22.1c2.5-4.4,4.9-9.2,5.2-14.3c0.2-3.2-0.1-6.6-0.3-10.1c-0.2-2.1-0.3-4.3-0.4-6.5    c-0.1-2.4-0.3-4.7-0.6-7.2c-0.2-2.2-0.4-4.5-0.6-6.8c-0.2-4.9,1.3-8.9,4.4-11.3c3.1-2.4,7.4-3.1,11.9-1.8    c4.4,1.3,8.8,2.9,12.9,4.5c1.6,0.6,3.1,1.2,4.7,1.7c8.6,3.1,15.2,9.1,19.5,17.8c2.3,4.5,4.5,9.2,6.6,13.7c1.2,2.6,2.5,5.2,3.7,7.8    c1,2.2,2.1,4.3,3.2,6.5c2.2,4.3,4.4,8.7,6.3,13.3c2.5,5.8,6.9,8.8,14,9.5c4,0.4,8,0.4,12.2,0.4c2.5,0,5.1,0,7.7,0.1    c3.6,0.1,7.2,0.4,10.7,0.6c1.5,0.1,3,0.2,4.5,0.3c4.3,0.3,8.1-0.6,11.4-2.7c4.3-2.6,6.6-6.9,9-12.9c0.4-1.1,0.8-2.1,1.2-3.2    c1.9-4.9,3.9-10,6.6-14.9c4.4-8,9.9-10,18.4-6.6c9,3.6,18.1,7.4,26.9,11l3.6,1.5c12.7,5.2,25.3,10.4,38,15.6    c2.9,1.2,5.8,2.4,8.8,3.6c7.9,3.3,16,6.6,24,9.8c9.3,3.7,18.6,7.6,27.5,11.4l5.2,2.2c6.2,2.6,10.6,7.1,12.9,13.1    c2.7,7.1,5.6,16.7,4,27.6c-1.5,10.2-7.1,17.4-16.2,20.7C435.4,225.8,429.8,226.2,424.5,226.2z M138.2,162.5c0.2,0,0.4,0,0.6,0    c11.8,1.3,22.4,5.6,32.8,9.7c3.2,1.3,6.5,2.6,9.8,3.8c1.2,0.4,2.3,0.9,3.3,1.4s2,0.9,2.9,1.2c4.5,1.6,7,5.1,7.5,10.4    c0.4,4.8-0.1,9.1-1.3,12.9c-0.4,1.2-0.4,2-0.2,2.3s1.2,1,3.6,1.3c3.6,0.5,7.3,0.6,11.2,0.8c1.7,0.1,3.3,0.1,5,0.2l4.5,0.3    c7.2,0.4,14.4,0.8,21.6,1.2c2.9,0.2,5.7,0.3,8.6,0.4c2.6,0.1,5.1,0.2,7.7,0.3c4.3,0.2,8.6,0.4,12.9,0.7c5,0.3,9.9,0.5,14.9,0.8    c2.8,0.1,5.6,0.2,8.3,0.4c3,0.1,6,0.2,8.9,0.4c4.9,0.2,9.8,0.5,14.8,0.8c4,0.2,8,0.4,12,0.7c2.2,0.1,4.4,0.2,6.5,0.3    c1.7,0.1,3.4,0.1,5.1,0.2c4.5,0.2,9,0.4,13.5,0.6c5.7,0.3,11.5,0.5,17.2,0.8c3.7,0.2,8.1,0.4,12.3,0.5c6.1,0.2,12.2,0.4,18.1,0.6    c6.9,0.3,14.1,0.5,21.1,0.7c5.4,0.1,11.1,0.1,16.2-1.8c5.7-2.1,8.8-6.2,9.7-12.8c1-6.7-0.1-13.6-3.5-22.6    c-1.3-3.3-3.8-5.9-7.4-7.4l-5.2-2.2c-8.9-3.8-18.2-7.7-27.3-11.3c-8.1-3.2-16.3-6.6-24.2-9.9c-2.9-1.2-5.8-2.4-8.8-3.6    c-12.7-5.2-25.3-10.4-38-15.6l-3.6-1.5c-8.8-3.6-17.9-7.3-26.9-10.9c-3.6-1.5-4-1.4-5.9,2.2c-2.4,4.3-4.1,8.8-6,13.7    c-0.4,1.1-0.8,2.2-1.3,3.3c-2.4,6.2-5.7,13.2-13,17.8c-5.1,3.2-10.9,4.6-17.3,4.1c-1.5-0.1-3-0.2-4.6-0.3c-3.4-0.2-7-0.5-10.4-0.6    c-2.5-0.1-5-0.1-7.4-0.1c-4.2,0-8.6-0.1-13-0.5c-10.8-1-18.3-6.3-22.2-15.6c-1.8-4.3-3.9-8.5-6-12.7c-1.1-2.2-2.2-4.4-3.3-6.6    c-1.3-2.6-2.5-5.3-3.7-7.9c-2.1-4.4-4.3-9-6.5-13.4c-3.2-6.4-7.8-10.7-14-12.9c-1.6-0.6-3.2-1.2-4.8-1.8c-4.2-1.6-8.1-3-12.2-4.2    c-1.5-0.4-2.5-0.3-2.9,0s-0.7,1.2-0.6,3c0.1,2.1,0.3,4.1,0.5,6.3c0.3,2.6,0.5,5.2,0.6,7.9c0.1,2,0.2,3.9,0.4,6    c0.3,3.7,0.6,7.5,0.4,11.5c-0.4,7.2-3.6,13.5-6.6,18.7c-5.2,8.9-11.6,17.1-19,24.3c-2.3,2.2-5.4,4.8-9.8,5.6    c-6.4,1.2-12.3-1.8-15.4-8l-3-6c-5.3-10.5-10.7-21.3-16-32c-4-8.1-7.8-16.1-11.5-23.9C64,86.7,65.2,79.1,71,73    c1.2-1.3,2.5-2.5,4.1-3.8c0.4-0.3,0.7-0.6,0.9-0.8c-0.2-0.2-0.6-0.5-1.2-0.8c-3-1.8-6.6-2.3-10.4-2.7C55.7,64,47,65.5,38.5,69.4    c-4,1.8-6.3,5.3-7.1,10.7c-1.1,7,0.1,14,3.6,21.5c2.6,5.6,5.1,11.3,7.5,16.9c1,2.4,2,4.7,3.1,7.1C51,138,58.4,149.3,67.4,159    c8.4,9.1,18.5,17.3,30.1,24.1c2.3,1.4,4.3,2.5,6.4,3.4c1.1,0.5,1.6,0.6,1.8,0.6c0.2-0.1,0.6-0.3,1.6-1.1c1.7-1.4,3.3-3.2,5.1-5.1    c4.7-5.1,9.9-10,15.8-14.9c3.2-2.6,6.7-3.1,9-3.5c0.3,0,0.6-0.1,0.9-0.1C138.1,162.5,138.1,162.5,138.2,162.5z M76.3,67.9    L76.3,67.9L76.3,67.9z" fill="#ffc107"/>

</svg>