<svg version="1.1" id="Layer_1" xmlns="http://www.w3.org/2000/svg" xmlns:xlink="http://www.w3.org/1999/xlink" x="0px" y="0px" viewBox="0 0 478 286" style="enable-background:new 0 0 478 286;" xml:space="preserve">

		<path class="st0" d="M44.9,250.8c-1.6,0-3.3-0.2-4.9-1c-9.5-4.6-16.3-14.5-18.1-26.4c-1.7-11.3,1.6-22.2,8.9-29.1    c7.4-7,15.6-13,23.6-18.8c3.9-2.8,7.9-5.8,11.7-8.8c10.3-8,20.4-11.8,31.9-12c5.6-0.1,11.3-0.6,16.9-1.2c6-0.6,12.1-1.1,18.3-1.2    c2.4,0,4.9-0.1,7.3-0.2c10.7-0.3,21.8-0.6,32,2.6c15.9,5.1,31.1,2.4,47.1-0.4c1.3-0.2,2.6-0.5,3.8-0.7c10.9-1.9,15-12.3,19.4-23.4    l0.4-1.1c4.6-11.7,9.6-23.4,14.5-34.7c2.1-4.9,4.2-9.7,6.2-14.5c0.9-2,2.9-3.3,5.1-3l11.6,1.2c9.1-6.7,19.7-13.9,31.4-18.2    c16-5.8,32.6-10.6,48.7-15.3c4.6-1.3,9.1-2.7,13.7-4c13-3.8,25.9-7.5,39.5-11.4c6.1-1.7,12.3-3.5,18.6-5.3    c2.2-0.6,4.6,0.3,5.7,2.3c1.8,3.1,3.6,6.1,5.3,9.2c5,8.5,9.6,16.4,13.9,24.9c2.2,4.3,0.9,9.6-0.4,14.3c-1,3.3-2.1,6.5-3.3,9.6    c-1.8,4.9-3.5,9.5-4.2,14.1c-1.1,7.5-4.1,17.7-17.2,19.4c-9.3,1.2-19.9-7.8-23.3-16.7c-1.1-2.8-4.3-11.4,3.1-18.1l1.6-1.4    c3.3-3,6.8-6.1,10-9.3c0.9-0.9,3-3,3-4c0-0.2-0.1-0.5-0.2-0.8c-0.5,0.3-1,0.6-1.5,0.9c-3.7,2.1-7.5,4.2-10.4,6.9    c-4.5,4.2-8.9,8.6-13.2,12.9c-8,8.1-16.4,16.4-25.9,23.6c-22.2,16.8-46,31.6-69.1,45.8c-9.7,6-19.7,12.2-29.5,18.5    c-9.2,5.9-17.7,7.4-27.6,4.8c-12.1-3.1-17.3-1.2-23.1,8.6c-3.9,6.6-7,13.6-10.3,21c-1.6,3.6-3.3,7.3-5,10.9    c-0.4,0.9-0.8,1.7-1.2,2.6c-3.8,8.1-8.4,18.2-21.5,20c-1.2,0.2-2.4-0.1-3.4-0.7c-0.8,0-1.7-0.1-2.6-0.5    c-28.6-10.6-57.2-21.3-86.9-32.3l-8.9-3.3c-6.4,4.2-10.2,11.3-14.2,18.8c-4.7,8.8-9.6,17.9-19.1,23.7c-0.8,0.5-1.7,0.7-2.6,0.7    c-0.6,0-1.4,0.1-2.1,0.2C47,250.7,46,250.8,44.9,250.8z M44.3,240.8c0.5,0.1,1.8,0,2.7-0.1c0.5-0.1,1-0.1,1.6-0.1    c6.6-4.5,10.4-11.6,14.5-19.2c4.9-9.1,10-18.5,20.1-24c1.3-0.7,2.8-0.8,4.1-0.3l11.1,4.1c29.5,11,57.9,21.6,86.4,32.1    c0.1,0,0.1,0,0.1,0c0.4,0,0.9-0.1,1.3-0.1c0.8,0,1.6,0.2,2.2,0.5c5.8-1.6,8.4-6.5,11.8-13.9c0.4-0.9,0.8-1.8,1.3-2.7    c1.7-3.5,3.3-7.2,4.9-10.7c3.3-7.3,6.7-14.9,10.9-22c8-13.6,17.9-17.4,34.2-13.2c7.3,1.9,12.8,0.9,19.7-3.6    c9.8-6.3,19.9-12.5,29.6-18.6c22.9-14.1,46.5-28.8,68.3-45.3c9-6.8,17-14.9,24.8-22.7c4.4-4.4,8.8-8.9,13.5-13.2    c3.8-3.5,8.1-5.9,12.3-8.3c1.7-1,3.4-1.9,4.9-2.9c1.9-1.2,4.5-1,6.1,0.6c3.7,3.6,5.6,7.1,5.6,10.8c0,4.9-3.1,8.4-6,11.2    c-3.4,3.3-6.9,6.5-10.3,9.6l-1.6,1.4c-1.3,1.2-2.2,2.5-0.4,7.1c2.2,5.8,9.1,10.7,12.6,10.3c4.8-0.6,7.4-2.5,8.7-11    c0.8-5.7,2.8-11,4.8-16.2c1.1-3.1,2.2-6,3.1-8.9c1.4-4.7,1.4-6.4,1.1-7c-4.2-8.2-8.8-16.1-13.6-24.4c-1.1-1.9-2.3-3.9-3.4-5.9    c-5.1,1.4-10,2.8-14.9,4.2c-13.6,3.9-26.5,7.5-39.4,11.3c-4.6,1.4-9.2,2.7-13.8,4c-15.9,4.6-32.3,9.4-48.1,15.1    c-11.1,4-21.1,11.1-30.4,18c-1,0.7-2.2,1.1-3.5,1l-9.9-1c-1.6,3.7-3.2,7.4-4.8,11.2c-4.8,11.3-9.8,22.9-14.4,34.5l-0.4,1.1    c-4.7,11.9-10.5,26.7-27,29.5c-1.3,0.2-2.5,0.4-3.8,0.7c-16.5,2.9-33.6,5.9-51.9,0.1c-8.6-2.7-18.8-2.4-28.7-2.1    c-2.4,0.1-5,0.1-7.5,0.2c-5.7,0.1-11.7,0.6-17.4,1.2c-5.8,0.5-11.7,1.1-17.7,1.2c-9.2,0.1-17.4,3.3-25.9,9.9    c-3.9,3.1-8,6.1-11.9,8.9c-7.7,5.7-15.7,11.5-22.6,18c-4.9,4.6-7.1,12.2-5.8,20.3C33,230.4,37.8,237.6,44.3,240.8z" fill="#ffc107" />

</svg>