

<svg version="1.1" id="Layer_1" xmlns="http://www.w3.org/2000/svg" xmlns:xlink="http://www.w3.org/1999/xlink" x="0px" y="0px" viewBox="0 0 478 286" style="enable-background:new 0 0 478 286;" xml:space="preserve">


	<path class="st0" d="M177.7,265.2c-1.9,0-3.5-0.3-4.3-0.5c-0.7-0.2-2-0.5-12.1-6.4c-0.2-0.1-0.3-0.2-0.5-0.3L40.4,167.4   c-0.2-0.1-0.3-0.2-0.5-0.4c-5.7-5.5-6.8-10.5-6.7-13.7c0.1-3.3,1.5-6.1,3.8-8.1c3.6-3,14-8,17.4-9.2c1.1-0.4,8-3.4,14.6-6.3   c17.7-7.7,24.3-10.5,25.9-10.9c4.5-1.1,9.9,0.9,12.4,3.4c1.5,1.5,13.6,15.5,15.9,18.3c0.1,0.1,0.2,0.2,0.2,0.3l10.6,14.5   c8.9,7.8,14.7,6.6,18.6,5.9c0.9-0.2,1.7-0.4,2.6-0.4c1.2-0.1,4.7-2.3,7.2-4.4c0.2-0.2,0.4-0.3,0.6-0.5c2.4-1.4,3.5-4.7,4.3-7.2   l0.1-0.3c0.5-1.4,0.2-4.9-0.5-7.5c-0.7-2-6.6-10.9-7.8-12.4c-2-2.1-10.4-14.9-11.7-18.6c-1.5-4.1-0.8-8.7,1.8-12.7   c2.4-3.6,7.2-4.5,8.6-4.6c0.6-0.1,1.3,0,1.9,0.1c7.4,2,10.4,5.7,12.8,8.6c0.4,0.5,0.9,1.1,1.4,1.6c0.1,0.1,0.2,0.2,0.3,0.4   c0.1,0.1,7.4,10,11.6,15.5c0.2,0.3,0.6,0.7,0.9,1.3c1.6,2.2,6.5,9,10.4,9.2c1.4,0.1,2.9-1,4.6-3c3.1-3.8-8.2-19.7-23.2-32.7   c-1-0.8-2.1-1.5-3-2.2c-2.9-2-6.9-4.6-5.9-9.6c1.1-5,7-7.4,9.5-8.3c1.5-0.5,3.4-0.5,6.7-0.6c1.4,0,3.2,0,4-0.1   c2.4-0.3,10.5-1,12.4-1.1l7.2-1.4c0.2,0,0.4-0.1,0.6-0.1c18.1-1.4,92.4-16,100.3-17.6c3.1-0.7,48.9-14.4,76.3-22.6   c30.5-9.2,30.6-9.2,31.2-9.3c5.6-0.9,9.7,0.2,12.2,3.3c3.6,4.4,1.9,10.5,0.6,13.8c-0.8,1.9-3.4,5.8-9.1,13.8   c-1.1,1.5-2.3,3.2-2.5,3.6c-1,1.8-26.6,35.9-32.7,43.3c-3.8,6.2-14.9,9.6-18.4,10.6l-23.2,7c-0.1,0-0.1,0-0.2,0   c-11.4,3-16.8-0.3-18.8-2.2c-2.2-1.5-3.6-3.7-4.6-5.3c-0.3-0.5-0.7-1.1-0.9-1.4c-1-0.3-2.4-0.2-3,0c-0.8,0.9-2.7,3.7-3.7,5.2   c-0.6,0.9-1.2,1.8-1.7,2.5c-1.7,2.4-5.1,5.1-9.8,8.5c-1.4,1.1-2.8,2.1-3.6,2.7c-4.5,3.8-9.9,2.1-12.5,1.3c-0.3-0.1-0.7-0.2-1-0.3   c-1.8-0.5-5.2-2.1-11.7-5.3c-1.5-0.7-2.9-1.5-3.4-1.7c-0.3-0.2-0.7-0.3-1.1-0.5c-1.7-0.9-3.9-1.9-8.5-1.7c-2.8,0.2-7.4,4.8-10,8.3   c-0.3,1.2-0.4,2.7-0.5,4.3c-0.1,2.6-0.2,5.9-1.5,9.5c-2.3,6.5-6.9,10.8-11,14.1c-2.4,1.9-4.9,2.5-7,2.9c-1.6,0.4-2.6,0.6-3.2,1.2   c-0.6,0.6-1.4,3.1-2,5.1c-0.7,2.4-1.5,5.2-2.9,8.2c-2.8,5.8-9.9,10.2-16.4,13.8c-0.8,0.5-1.9,1.1-2.2,1.3c-0.9,0.6-3.6,2.4-6.9,4.7   c-5.4,3.6-12.8,8.5-15.2,10.3s-3.5,3.1-3.2,7.8c0.3,5.3,2.2,11.5,2.8,12.6c2.2,3.5,8.7,23.8,8.3,32c-0.2,4.8-2.4,7.4-4.3,8.8   C182.9,264.7,180.1,265.2,177.7,265.2z M176.1,255c1.4,0.3,2.8,0.1,3.1-0.1c0,0,0.2-0.4,0.2-1.2c0.3-6.1-5.4-23.4-6.8-26.3   c-1.9-3-4-11.5-4.3-17.4c-0.4-7.5,1.7-12.2,7.2-16.4c2.6-1.9,9.8-6.8,15.7-10.6c3-2,5.9-3.9,6.7-4.5c0.7-0.5,1.7-1.1,3.1-1.9   c3.2-1.8,10.7-6,12.3-9.4c1.1-2.2,1.7-4.5,2.4-6.7c1.1-3.7,2.1-7.2,4.9-9.7c2.6-2.3,5.5-3,7.7-3.4c1.3-0.3,2.4-0.5,3-1   c3.2-2.6,6.4-5.5,7.8-9.6c0.8-2.2,0.9-4.3,0.9-6.5c0.1-2.4,0.2-5.2,1.3-8c0.1-0.4,0.3-0.7,0.5-1c1.4-2.1,9-12.7,18-13.2   c7.3-0.5,11.4,1.6,13.6,2.7c0.3,0.1,0.5,0.2,0.7,0.3c0.7,0.3,1.8,0.9,3.8,1.9c2.6,1.3,8.5,4.2,9.9,4.6c0.4,0.1,0.9,0.2,1.3,0.4   c0.8,0.2,2.5,0.8,3,0.6c1-0.9,2.5-1.9,4.1-3.1c2.3-1.7,6.6-4.9,7.5-6.2c0.5-0.7,1-1.5,1.6-2.3c2.7-4,4.4-6.6,6.2-7.8   c3-2.1,8.8-3,13.5-0.8c2.4,1.2,3.8,3.3,4.8,5.1c0.5,0.8,1.2,2,1.6,2.2c0.5,0.3,0.9,0.6,1.3,1c0.3,0.2,2.7,1.6,9.3-0.1l23.1-7h0.1   c5.6-1.5,11.7-4.5,12.6-6.2c0.2-0.3,0.3-0.6,0.6-0.8c6.1-7.4,30.6-40.2,32.1-42.4c0.3-0.5,0.9-1.4,2.9-4.2c2.2-3.1,7.3-10.3,8-11.8   c0.6-1.5,0.8-2.9,0.8-3.6c-0.4-0.1-1.2-0.1-2.5,0.1c-1.9,0.5-15,4.5-30.1,9c-41.9,12.6-74.2,22.3-77.1,22.9   c-0.8,0.2-80.7,16-101.2,17.7l-7.2,1.4c-0.2,0-0.4,0.1-0.6,0.1c-2.7,0.2-10.3,0.9-12.2,1.1c-1.4,0.2-3.3,0.2-5.2,0.2   c-1.2,0-3.1,0-3.8,0.1c-0.2,0.1-0.4,0.2-0.7,0.3c1,0.7,2.1,1.5,3.3,2.4c0.1,0.1,0.1,0.1,0.2,0.2c0.3,0.3,8.6,7.5,15.9,16.3   c4.2,5,16.8,20.2,8.6,30.4c-3.7,4.6-8,6.8-12.7,6.7c-8.8-0.3-15.2-9.1-18.2-13.3c-0.3-0.4-0.5-0.7-0.7-1   c-3.9-5.1-10.5-14-11.5-15.4c-0.6-0.6-1.1-1.2-1.5-1.8c-1.8-2.3-3.1-3.8-6.5-4.9c-0.3,0.1-0.7,0.2-0.9,0.3   c-0.4,0.6-1.1,2.1-0.6,3.4c0.8,2.1,8.1,13.4,9.6,15.2c1.8,2,9,12.7,10.1,16.4c0.2,0.8,2.3,8,0.4,13.5l-0.1,0.3   c-1.1,3.2-3,9-8.3,12.4c-2,1.7-7.8,6.1-12.5,6.5c-0.3,0-0.9,0.1-1.4,0.3c-4.8,1-14.8,3-27.7-8.6c-0.3-0.2-0.5-0.5-0.7-0.8   l-10.8-14.7c-6.8-7.8-14.4-16.6-15.3-17.6c-0.5-0.4-2.2-1-2.9-0.8c-2.1,0.7-15.5,6.5-24.4,10.4c-8.8,3.8-13.8,6-15.2,6.5   c-3.2,1.1-12.2,5.7-14.4,7.5c-0.1,0.1-0.2,0.4-0.2,0.8c0,0.6,0.2,2.8,3.4,6l120,90.2C170.4,251.9,174.9,254.5,176.1,255z    M172.8,227.5c0.1,0.1,0.2,0.2,0.2,0.3C172.9,227.8,172.9,227.7,172.8,227.5z M181,221.8c0.1,0.1,0.1,0.2,0.2,0.3   C181.1,222,181,221.9,181,221.8z M166.5,121.6l0.1,0.1C166.5,121.6,166.5,121.6,166.5,121.6z M320.3,107.1L320.3,107.1L320.3,107.1   z M332.9,106.9c0,0.1,0.1,0.1,0.1,0.2C333,107,333,107,332.9,106.9z M179.2,84.8L179.2,84.8L179.2,84.8z M410.6,50.1   C410.6,50.1,410.6,50.2,410.6,50.1C410.6,50.2,410.6,50.1,410.6,50.1z" fill="#ffc107"/>

</svg>