<?xml version="1.0" encoding="UTF-8"?>
<!-- Generator: Adobe Illustrator 22.0.1, SVG Export Plug-In . SVG Version: 6.00 Build 0)  -->
<svg version="1.1" id="Layer_1" xmlns="http://www.w3.org/2000/svg" xmlns:xlink="http://www.w3.org/1999/xlink" x="0px" y="0px" viewBox="0 0 478 286" style="enable-background:new 0 0 478 286;" xml:space="preserve">

<!-- <style type="text/css">
	.st0{fill:url(#SVGID_1_);}
</style> -->

<g id="CATALUNYA">
	
	<!-- <linearGradient id="SVGID_1_" gradientUnits="userSpaceOnUse" x1="20.2" y1="134" x2="456.7873" y2="134" gradientTransform="matrix(1 0 0 -1 0 286)">
		<stop offset="0" style="stop-color:#00F4FF"/>
		<stop offset="1" style="stop-color:#1B5FE1"/>
	</linearGradient> -->

	<path class="st0" d="M417.1,229.8c-26.7,0-78.7-2.6-81.4-2.7l-146.8-5.7c-14.7-0.6-88.3-3.4-90.2-3.6h-0.2   c-10.3-0.7-17.8-7.2-21.1-18.3c-0.1-0.3-0.2-0.7-0.2-1.1c-0.4-4.5-0.9-9.8-1.2-12.1c-3.1-2.7-14.2-10.8-17.6-12.8   c-1.4-0.8-35.4-20.8-38.2-43.6c0-0.3,0-0.6,0-0.8c0.2-4.6,0.8-15.5,1.7-18.4c1.1-3.5,9.4-16.9,12.5-20.2c3.2-3.4,25.2-16.3,34-16.3   c0,0,0,0,0.1,0c0.7,0,82.3,2.1,85.7,2.8c0.4,0.1,1.8,0.2,2.9,0.3c5.9,0.5,10.6,1,13.4,2.7c0.2,0.1,0.4,0.2,0.6,0.4   c4,2.2,16.1,9,11,29.7s-22.6,25.1-30.1,27.1l-0.9,0.2c-4.7,1.2-20.7,0.8-45.2-0.3c-3.3-0.1-6.4-0.3-7.3-0.3c-0.6,0.1-1.2,0-2,0   c-5.3-0.3-6.6,0.5-6.9,0.8c-0.5,0.6-1.8,3.6-0.5,6.3l43.4,27.5l11.8,4.8l28,1.1c2.7,0,5.8-0.3,7.6-0.7c0.6-2.7,1.5-8.6,1.3-18.6   l0,0c-0.1-3.3,3.8-13.3,7.2-16.5c1.3-1.2,9.4-10.9,16.5-19.6l15.9-19.6c1.2-1.6,9.4-12.4,20.7-13.3c0.2,0,0.5,0,0.7,0   c1.8,0.1,18.2,1.4,25.4,6.4c24.3,17,43.5,29.9,47.8,32c2.5,0.3,7.6,3.4,32.2,20.7c5.2,3.7,11.2,7.9,12.3,8.4c1.8,1,6.4,4.1,13.7,9   c4.9,3.3,11.7,7.9,13,8.6c1.3,0.6,3.1,1.7,5.3,3c1.4,0.9,3.8,2.4,4.5,2.7c0.2,0.1,0.3,0.1,0.5,0.2c-0.2-0.5-0.3-0.9-0.4-1.2   c-0.2-0.4-0.3-0.8-0.4-1.1c-0.3-0.8-0.8-2.7-2-6.7c-1.4-4.9-4.2-14.5-5.6-18.2c-2-0.8-5.2-2.3-10.8-5.1c-4.5-2.2-12.5-6.2-15.1-8   c-4.4-3-9.2-7.2-12-15.8c-0.2-0.6-0.3-1.1-0.2-1.7c0.1-1.9,0.5-11.9,4.3-17.3c4-5.6,14.9-11.1,21.5-10.8c4.7,0.2,14,1.5,18.8,4.2   c2.8,1.5,12.1,5.8,16.7,7.9c1,0.5,1.9,0.9,2.4,1.1c0.2,0.1,17.3,8.7,20.4,12.8c1.8,2.3,2.4,5.5,2.3,35c0,2,0,4,0,5.6   c1.3,0.1,2.7,0.2,3.8,0.2c3.8,0.2,6,0.3,7.6,0.8c4.7,1.4,7.7,4.5,8.4,8.4c0.3,1.6,0,4.9-3.7,29.7c-0.4,2.7-0.8,5.2-0.8,5.6l0,0   c-0.4,3.6-5.3,21.7-21.9,23.7C427.7,229.7,423,229.8,417.1,229.8z M87.2,197.2c2.1,6.7,6.2,10.2,12.1,10.7h0.2   c2.2,0.1,65.5,2.6,89.7,3.6l146.9,5.7c27.5,1.4,82.2,3.7,92.9,2.4c10.1-1.2,13-13.8,13.2-14.8c0.1-0.5,0.2-1.7,0.9-6.1   c0.9-6.3,3.3-22.3,3.6-26.4c-0.2-0.2-0.7-0.4-1.4-0.7c-0.7-0.2-3.4-0.3-5.1-0.4c-7.3-0.4-11.8-0.6-12.9-5c-0.3-1-0.3-1.4-0.3-10.9   c0-7.5,0-24.5-0.7-29.2c-2.9-2.3-13-8-16.3-9.5c-0.5-0.2-1.4-0.6-2.4-1.1c-6.9-3.2-14.4-6.7-17.3-8.2c-2.4-1.3-9.2-2.7-14.4-2.9   c-3.1-0.1-10.7,3.4-12.9,6.6c-1.4,2-2.2,7.3-2.4,10.9c2,5.4,5,7.8,7.9,9.8c3.2,2.2,21.7,11.1,25,12.4c3.2,0.6,4.2,3.6,6.4,10.8   c1.3,4.2,2.8,9.3,4,13.5c0.8,2.8,1.6,5.6,1.8,6.1c0.1,0.3,0.2,0.6,0.3,0.9c1.3,3.5,3.3,8.7,0.6,12.8c-3.4,5.2-9.7,2.6-12,1.7   c-0.3-0.1-0.8-0.3-1-0.4c-1.6-0.5-3.6-1.7-6.9-3.8c-1.4-0.9-3.4-2.1-4.1-2.4c-1.4-0.6-4.6-2.8-14.4-9.4c-5.4-3.6-11.4-7.7-13-8.5   c-1.4-0.8-5.5-3.6-13.2-9c-8.7-6.1-24.6-17.3-28.2-18.9c-3.3-0.8-12.2-6-51.9-33.7c-3.5-2.4-13.6-4.2-20-4.6   c-5.9,0.7-11.4,6.8-13,9.2c-0.1,0.1-0.1,0.2-0.2,0.3l-16,19.7c-2.5,3-14.9,18.3-17.5,20.6c-1.2,1.3-3.7,7.3-4,9.2   c0.4,16.8-2.3,23.6-2.6,24.3s-0.7,1.3-1.2,1.7c-0.8,0.8-3.3,3.1-15.1,3.2c-0.1,0-0.2,0-0.3,0l-29.1-1.2c-0.6,0-1.1-0.1-1.7-0.4   l-13-5.3c-0.3-0.1-0.5-0.2-0.8-0.4l-44.7-28.3c-0.5-0.3-1-0.8-1.4-1.3c-5.2-7.1-2.6-15.9,0.8-19.6c4.2-4.6,11.3-4.2,14.8-4   c0.3,0,0.5,0,0.7,0c0.7-0.1,1.9,0,8.6,0.3c9.4,0.4,38.1,1.7,42.2,0.6l0.9-0.2c6.7-1.7,19.2-4.9,22.9-19.8   c3.3-13.3-2.9-16.8-6.2-18.6c-0.4-0.2-0.7-0.4-1-0.6c-1.3-0.6-6.7-1.1-9-1.2c-1.9-0.1-3-0.2-3.9-0.4c-4.6-0.4-75.7-2.6-84-2.6l0,0   c-4.9,0-23.8,10.4-26.7,13.2c-2.2,2.3-9.3,13.8-10.2,16.2c-0.4,1.4-0.9,9-1.2,15.4c2.2,14.7,25.2,31.1,33.2,35.8   c0.2,0.1,19.9,13,21.7,16.9C85.6,182.7,86.2,184.1,87.2,197.2z M442.3,204.8c0,0.1,0,0.2,0,0.2   C442.3,204.9,442.3,204.9,442.3,204.8z M398,183.4L398,183.4L398,183.4z M396.5,179.9C396.6,179.9,396.6,179.9,396.5,179.9   C396.6,179.9,396.6,179.9,396.5,179.9z M181.5,176.3L181.5,176.3L181.5,176.3z M390.9,153.8c0.1,0,0.2,0,0.2,0.1   C391.1,153.8,391,153.8,390.9,153.8z M99.3,136.8c-0.1,0-0.3,0-0.4,0.1C99.1,136.9,99.3,136.8,99.3,136.8z M97.6,127L97.6,127   L97.6,127z M152.3,87h0.1C152.4,87,152.4,87,152.3,87z" fill="#ffc107" />
</g>
</svg>