<?xml version="1.0" encoding="utf-8"?>
<!-- Generator: Adobe Illustrator 19.2.1, SVG Export Plug-In . SVG Version: 6.00 Build 0) -->
<svg version="1.1" id="Layer_1" xmlns="http://www.w3.org/2000/svg" xmlns:xlink="http://www.w3.org/1999/xlink" x="0px" y="0px" viewBox="0 0 478 286" style="enable-background:new 0 0 478 286;" xml:space="preserve">

  <g id="THAILANDIA">

    <path d="M31.7,266.6c-3.1,0-5.8-1.2-8-3.4c-0.1-0.1-0.2-0.3-0.3-0.4l-0.7-0.8c-2.1-2.6-2.8-6.5-2.4-12.3
				c0-0.1,0-0.2,0-0.2l0-0.3c0-0.1,0-0.2,0-0.2L54.5,57.8c0-0.2,0.1-0.5,0.2-0.7l0.1-0.2c2.1-6.3,7.2-10.4,13.8-11
				c5.7-0.4,74.5-2.5,150.6-4.7l32.8-1c0.1,0,0.3,0,0.4,0c0.2,0,0.4,0,0.6,0l0.4,0c13.2,0.2,22.5,0,27.6-0.7
				c10.5-1.4,116.5-16,124.1-17.2c0.5-0.1,1.2-0.2,1.9-0.3l0.1,0c8.3-1.4,27.7-4.8,35,7.3c0,0,0,0.1,0.1,0.1
				c0.1,0.1,0.1,0.2,0.2,0.3c0.9,1.4,2.8,4.3,2.8,8.4v4.9c0,1.4-0.6,2.7-1.5,3.6c-0.8,2.1-1.9,4.1-3.4,6
				c-4.5,5.7-12.7,9.2-23.6,10.1C402,63.9,230.2,84.5,165.6,92.2l-21.6,2.6c-0.1,0-0.3,0-0.4,0c-6.6,0.3-19.5,2.9-25.5,10.7
				c-0.1,0.1-0.2,0.2-0.3,0.3l-0.3,0.3c-5.9,8.8-32.3,53.1-42.3,69.9l-0.1,0.2l-2.9,5.1c-0.3,0.7-1.8,4.1-0.6,8.4
				c0.8,0.8,1.3,1.8,1.4,2.9c1.9,2.3,8.1,6.5,28.7,7.1l4.4-0.4c7.5-0.7,17.6-8.7,20.1-18.9c2.7-11.1,6.2-30,6.9-33.7l0.1-0.4
				c0.1-0.6,0.2-1.1,0.3-1.7l0.1-0.6c0-0.1,0.1-0.3,0.1-0.4c1-3.7,6-11.3,13-16.1c5.2-3.6,10.7-7.4,23.1-9
				c10.6-1.4,80.4-11.3,86.3-12.1l1.4-0.2c6.9-1,17.1-2.6,25.2,6l0.3,0.3c0.2,0.2,0.4,0.4,0.6,0.7l0.7,1c0.1,0.1,0.2,0.3,0.3,0.4
				c1.6,2.7,5.1,10.1,19.6,43.2c0,0,0,0.1,0.1,0.1l1.2,2.9c3.4,7.9,3.7,20.1-7,28.4c-10.6,8.8-19.2,8-38-3.6
				c-6.6-4-19.8-9.9-34.4-3.5c-11.4,5-18.8,13.6-23.8,19.3l-0.4,0.5c-0.1,0.1-0.1,0.2-0.2,0.3c-0.7,0.7-1.1,1.3-1.6,1.8
				c-0.8,0.9-1.4,1.6-2.1,2.2c-5.2,5.1-8,7.4-24.6,13c-10.7,3.6-76.6,25.9-114,38.5c-6.4,2.2-6.7,2.3-7.8,2.6l-0.4,0.1
				c-1.4,0.5-4.1,1.4-12.5,4.2l-2.9,1C34.2,266.4,32.9,266.6,31.7,266.6z M31,256.4c0.3,0.2,0.4,0.2,0.7,0.2c0.1,0,0.3,0,0.7-0.1
				l2.9-1c8.5-2.9,11.2-3.8,12.6-4.2l0.5-0.2c1.1-0.4,1.4-0.5,7.8-2.6c37.5-12.6,103.3-34.9,114-38.5c15.1-5.1,16.8-6.7,20.8-10.6
				c0.4-0.4,0.9-1,1.6-1.7c0.5-0.5,0.9-1.1,1.6-1.8l0.4-0.5c0-0.1,0.1-0.1,0.1-0.2c5.5-6.4,13.9-16,27.4-22
				c18.7-8.2,35.3-0.9,43.6,4.2c18.2,11.2,21.1,8.8,26.4,4.4c0,0,0.1-0.1,0.1-0.1c7.8-6.1,5-14.3,4-16.6c0,0,0-0.1-0.1-0.1l-1.2-2.9
				C283,134.7,277.6,122.9,276,120l-0.4-0.5c-0.1-0.1-0.1-0.1-0.2-0.2c-4.2-4.5-9.3-4.2-16.5-3.1l-1.4,0.2c0,0-0.1,0-0.1,0
				c-5.6,0.8-75.8,10.8-86.6,12.1c-9.9,1.2-13.8,3.9-18.7,7.3c-5,3.4-8.4,8.8-9,10.3l-0.1,0.4c0,0.1,0,0.1,0,0.2
				c-0.1,0.6-0.2,0.8-0.2,0.9c0,0.1,0,0.2,0,0.3l-0.1,0.6c-0.7,3.8-4.2,23-7,34.3c-3.6,14.9-17.8,25.3-28.8,26.4l-3.9,0.4
				c-0.4,0.1-0.7,0.1-1.1,0.1c-20.7-0.5-33-4.6-37.8-12.4c-0.1-0.2-0.3-0.5-0.4-0.7l-0.1-0.2c-0.1-0.1-0.1-0.3-0.2-0.4
				c-0.1-0.2-0.2-0.4-0.2-0.6c-0.3-0.4-0.6-0.9-0.7-1.4c-3.1-8.7,0.2-15.9,0.8-17.3c0-0.1,0.1-0.2,0.1-0.2l3-5.3c0,0,0-0.1,0.1-0.1
				l0.2-0.3c10.2-17.1,37.2-62.4,42.9-70.6c0.1-0.2,0.3-0.4,0.4-0.6l0.4-0.4c9.8-12.6,28.5-14.2,32.6-14.4l21.4-2.6
				c64.7-7.8,236.6-28.4,251.5-29.6c7.9-0.7,13.8-2.9,16.6-6.4c1.1-1.4,1.8-2.8,2.2-4.4c0.1-0.5,0.3-1,0.6-1.5V38c0-1-0.6-2-1.2-2.9
				c-0.1-0.2-0.3-0.4-0.5-0.7c-3.8-6.2-19.5-3.5-24.7-2.6l-0.2,0c-0.7,0.1-1.3,0.2-1.6,0.3c-0.1,0-0.1,0-0.2,0
				c-6.9,1.1-113.9,15.9-124.5,17.3c-5.5,0.7-15.3,1-29,0.8l-0.4,0c-0.3,0-0.4,0-0.6,0l-32.8,1c-53.9,1.6-144.2,4.2-150.1,4.7
				c-2.5,0.2-4.2,1.6-5.1,4l-34,190.7c-0.3,3.5,0.1,4.9,0.2,5.1L31,256.4z M30.5,255.8L30.5,255.8L30.5,255.8z M30.4,255.6
				C30.4,255.6,30.4,255.6,30.4,255.6C30.4,255.6,30.4,255.6,30.4,255.6z" fill="#ffc107"/>
  </g>
</svg>
