<?xml version="1.0" encoding="UTF-8"?>
<!-- Generator: Adobe Illustrator 19.2.1, SVG Export Plug-In . SVG Version: 6.00 Build 0)  -->
<svg version="1.1" id="Layer_1" xmlns="http://www.w3.org/2000/svg" xmlns:xlink="http://www.w3.org/1999/xlink" x="0px" y="0px" viewBox="0 0 478 286" style="enable-background:new 0 0 478 286;" xml:space="preserve">

<!-- <style type="text/css">
	.st0{fill:url(#SVGID_1_);}
</style> -->

<g id="SPAGNA">
	<g>

		<!-- <linearGradient id="SVGID_1_" gradientUnits="userSpaceOnUse" x1="97.7679" y1="144.0118" x2="318.4917" y2="144.0118">
			<stop offset="0" style="stop-color:#00F4FF"/>
			<stop offset="1" style="stop-color:#1B5FE1"/>
		</linearGradient> -->

		<path class="st0" d="M184.7,267.1c-5,0-9.6-2.4-12.8-6.8c-1.2-1.7-2-3.4-2.6-5c-0.3-0.6-0.6-1.3-0.9-1.9c-2.2-4.4-4.3-9-6.4-13.4    c-0.7-1.4-1.3-2.8-2-4.2c-0.9-2-1.9-4-2.8-6c-3.5-7.5-7.2-15.3-10.5-23.1c-1.7-3.9-3.4-8-3.7-13.1c-0.4-7.6,1.8-14.3,6.4-19.9    c4.5-5.4,9.4-10.4,14.2-15.3l1.3-1.4c2.7-2.8,5.5-5.6,8.1-8.5c3.9-4.4,9.4-6.7,16.2-6.7c0,0,0,0,0.1,0c17.2,0,34.3,0,51.5,0    l18.3,0c0.2,0,0.3,0,0.5,0c0.3,0,0.5-0.1,0.7-0.1c2.9-0.6,3.3-1.3,3.6-2.2c0.3-0.8,0.6-1.6-1.1-3.4c-1.3-1.4-3.1-2.3-6.2-3.1    c-7.7-2.1-15.5-4.2-23.2-6.3c-8.3-2.2-16.5-4.4-24.8-6.7c-7.6-2.1-15.3-4.2-22.9-6.3c-8.5-2.3-17-4.7-25.4-7    c-12.3-3.3-24.7-6.6-36.8-9.9l-12.8-3.4c-3-0.8-5.6-2-7.8-3.7c-4.2-3.1-5.8-7.4-4.8-12.4c0.5-2.4,1.5-4.5,3.3-6.7l5.3-6.4    c3.8-4.7,7.6-9.4,11.5-14c1.3-1.5,2.5-3.1,3.7-4.6c2.9-3.6,5.9-7.4,9.2-11c3.3-3.6,7-5.3,11-5c7.2,0.6,11.8,5.8,11.8,13.3    c0,1.2,0,2.5,0,3.7c0,2.9,0.1,5.9-0.1,9c-0.1,4,1.4,7.3,4.6,10c3.5,2.9,7.3,5.7,10.9,8.4l1.7,1.2c5.3,3.9,10.6,7.7,15.6,11.3    c4.3,3,9,4.3,13.8,3.8c5.4-0.6,10.5-3,15.2-7.1c4.7-4.2,9.4-8.5,14-12.8l3-2.8c3-2.8,6-5.6,9-8.5c2.6-2.5,5.3-5,7.9-7.5    c2.6-2.4,5.2-4.8,7.8-7.2c4.7-4.4,9.6-8.9,14.3-13.4c7.4-7.2,16.2-10.8,26.2-10.5c4.9,0.1,9.2,1.7,12.8,4.6    c5.3,4.4,7.8,10.5,7.8,18.6c0,42.6,0,85.3,0,127.9l0,38.2c0,2.6-0.2,5-0.6,7.5c-1.2,7.4-5.8,10.2-9.4,11.3    c-5.4,1.6-10.6,0.2-14.8-3.9c-3.1-3.1-4.7-6.9-6-10.2c-0.2-0.5-0.4-0.9-0.6-1.4c-1.3-3-2.5-6-3.7-8.9c-3.2-7.8-6.5-15.8-10.2-23.4    c-2.4-4.8-5.6-8.4-10-10.9c-2.9-1.7-6.3-2.5-10.8-2.5c-3,0-6,0-9,0c-3.8,0-7.8,0-11.7-0.1c-9.5-0.2-17.5-0.3-25.6,0.5    c-5.5,0.5-12.7,4-14.8,11.9c-2.2,8-1,15.5,3.6,22.9c4.4,7,9.1,14,13.6,20.8c2.3,3.5,4.7,7,7,10.5l0.4,0.5c1,1.6,2.2,3.4,3.1,5.4    c2.7,6.5,1.8,11.1,0.5,13.8c-1.2,2.6-4,6.1-10.1,7.8c-6.8,2-13.8,3.6-20.9,5.1C187.1,267,185.9,267.1,184.7,267.1z M189.2,151.9    c-3.9,0-6.7,1.1-8.7,3.3c-2.8,3.1-5.7,6-8.5,8.9l-1.3,1.4c-4.6,4.7-9.4,9.5-13.6,14.6c-3,3.7-4.4,8-4.1,13.1    c0.2,3.3,1.4,6.2,2.9,9.7c3.3,7.6,6.9,15.3,10.4,22.8c1,2,1.9,4,2.9,6.1c0.7,1.4,1.3,2.8,2,4.2c2,4.3,4.1,8.8,6.2,13.1    c0.4,0.8,0.8,1.6,1.1,2.4c0.5,1.2,1,2.3,1.6,3.2c1.6,2.2,3.6,3,6,2.5c7-1.6,13.8-3.1,20.3-5c1.4-0.4,3.2-1.2,3.9-2.5    c0.6-1.2,0.3-3.2-0.7-5.6c-0.5-1.2-1.3-2.4-2.2-3.8l-0.4-0.6c-2.3-3.5-4.6-7-6.9-10.4c-4.6-6.8-9.3-13.9-13.7-21    c-6.2-9.8-7.8-20.2-4.8-30.9c2.9-10.5,12.1-18,23.5-19.2c9.3-0.9,19-0.7,26.8-0.6c3.8,0.1,7.7,0.1,11.5,0.1c3,0,6.1,0,9.1,0    c6.3,0.1,11.3,1.3,15.7,3.9c6,3.5,10.7,8.6,13.9,15.2c3.8,7.9,7.2,16.1,10.5,24c1.2,3,2.4,5.9,3.7,8.9c0.2,0.5,0.4,1,0.6,1.5    c1.2,2.8,2.1,5.2,3.8,6.9c2,2,3.6,1.8,4.8,1.4c1.1-0.3,2-0.8,2.4-3.4c0.3-1.9,0.5-3.8,0.5-5.8l0-38.2c0-42.6,0-85.3,0-127.9    c0-5.1-1.3-8.5-4.2-10.9c-1.8-1.5-3.9-2.2-6.6-2.3c-7.3-0.2-13.5,2.3-19,7.7c-4.8,4.6-9.7,9.2-14.5,13.6c-2.6,2.4-5.1,4.8-7.7,7.2    c-2.6,2.5-5.2,4.9-7.9,7.4c-3,2.8-6,5.7-9,8.5l-3,2.8c-4.6,4.3-9.4,8.8-14.2,13c-6.3,5.5-13.3,8.7-20.8,9.5    c-7.2,0.8-14.4-1.2-20.6-5.6c-5.1-3.6-10.4-7.5-15.8-11.4l-1.7-1.2c-3.8-2.8-7.7-5.7-11.5-8.9c-5.5-4.7-8.3-10.9-8.1-18    c0.1-2.8,0.1-5.6,0-8.5c0-1.3,0-2.5,0-3.8c0-2.9-1.2-3.2-2.6-3.3c-0.8-0.1-1.8,0.5-3,1.8c-3,3.3-5.8,6.7-8.7,10.4    c-1.3,1.6-2.5,3.2-3.8,4.7c-3.8,4.7-7.6,9.3-11.4,14l-5.3,6.5c-0.7,0.9-1.1,1.6-1.3,2.4c-0.2,1.1-0.1,1.6,1,2.4    c1.2,0.9,2.6,1.5,4.4,2l12.8,3.4c12.1,3.2,24.6,6.5,36.9,9.9c8.5,2.3,17,4.6,25.5,7c7.6,2.1,15.2,4.2,22.9,6.3    c8.2,2.2,16.5,4.4,24.7,6.7c7.7,2.1,15.5,4.2,23.2,6.3c3.3,0.9,7.6,2.4,10.9,5.9c4.9,5.2,4.4,10.4,3.1,13.7    c-2.2,5.8-7.2,7.6-10.8,8.4c-0.7,0.2-1.4,0.2-2,0.3c-0.2,0-0.4,0-0.5,0.1c-0.6,0.1-1.1,0.1-1.6,0l-17.5,0    C223.6,151.9,206.4,151.9,189.2,151.9C189.3,151.9,189.2,151.9,189.2,151.9z" fill="#ffc107" />
	</g>
</g>
</svg>