<svg version="1.1" id="Layer_1" xmlns="http://www.w3.org/2000/svg" xmlns:xlink="http://www.w3.org/1999/xlink" x="0px" y="0px" viewBox="0 0 478 286" style="enable-background:new 0 0 478 286;" xml:space="preserve">

  <path d="M361.1,267.7c-5.9,0-10.3-2.3-12.1-3.4L79.4,123.6c-2.5-1.3-8.2-5-8-12.6c0.2-8.2,7.7-13.8,14.2-17.8
			c6.1-3.8,13-6.9,15.5-8.2c2.3-1,4.6-1.5,7.3-1.5c7.7,0,14.7,4.6,20.3,8.4c1.9,1.3,4.6,3.1,5.7,3.4c0.2,0,0.6,0.2,1,0.2
			c2.1,0,5.2-0.6,8.4-1.5c3.1-0.8,6.9-1.7,10.7-2.1c0.6,0,1.3,0,1.9,0c6.7,0,12.8,3.8,17.4,10.5c2.5,4,3.8,7.7,4,8.4l0.2,0.8
			l0.2,0.8c0,0,0.6,5,2.7,13.4c1,4,4.6,6.9,8.6,6.9c0.4,0,1,0,1.5-0.2c6.3-1.3,8.4-7.5,9-11.1c0.6-5.2-4-32.9-6.3-41.9
			c-0.6-2.5-1.9-5.2-3.4-8.4c-1.7-3.6-3.8-7.7-5-12.6c-2.7-10.1-1.9-18.9-1-22.2c0.4-1.3,1.9-6.1,6.7-10.7c3.4-3.1,9.4-7.1,18.9-7.5
			c0.2,0,0.6,0,0.8,0h0.2c6.7,0,13.2,2.5,18.2,6.9c5,4.4,8.4,10.5,9.4,17l4.2,25.1l7.7,19.9c0.8,2.3,1.9,4,2.9,5.9
			c2.3,4,4.8,8.6,5,17v1.3l-2.5,11.1L236.9,154c0.6,0.2,1.5,0.4,2.5,0.4c2.5,0,5.2-1,6.3-1.7c1.5-1.3,2.3-2.5,3.8-5.2
			c1.7-2.9,3.6-6.7,7.3-10.5c4.4-4.4,12.8-9.4,14.5-10.3l31.2-18c0.2-0.2,0.4-0.4,0.6-0.6l0,0l0,0l-4,0.8h-0.2
			c-1.5,0.2-2.7,0.4-4.2,0.4c-6.7,0-13.4-2.7-19.3-7.7c-4-3.4-7.1-7.7-8.4-11.1l-5.7-14.7c-2.7-7.3-3.8-15.3-3.1-23l0.2-1.7l0.2-0.8
			c1.9-6.7,8.2-11.5,15.1-11.5c3.4,0,6.5,1,9.2,3.1l0.6,0.4l10.9,10.9c0.4,0.4,0.8,0.8,1.5,1.3l92.2,66.2
			c6.3,4.6,10.7,11.3,12.1,19.1l0,0c0.6,3.6,0.6,7.1,0,10.5c-1.7,8.4-5.7,15.9-11.7,22l-4,4.2c-2.9,2.9-5,6.5-6.1,10.5l-4.4,15.5
			c-1.5,5.2-1,10.9,1,16.1l5.9,14.2c0.4,1,0.8,2.3,1,3.4v0.2c0.8,3.8,3.6,15.7-5.2,24.5C372.6,265.4,367,267.7,361.1,267.7
			L361.1,267.7z M84,114.6l270,140.8c0,0,8.4,5.7,15.7-1.9c5-5,3.4-11.9,2.5-15.3c-0.2-0.6-0.4-1.3-0.6-1.9l-5.9-14.2
			c-2.9-7.1-3.4-15.1-1.5-22.6l4.4-15.5c1.5-5.7,4.6-10.7,8.6-14.9l4-4.2c4.6-4.6,7.7-10.5,9-17l0,0c0.4-2.1,0.4-4.4,0-6.7l0,0
			c-1-5.2-4-9.6-8.2-12.8l0,0L289.9,62c-0.8-0.6-1.9-1.5-2.5-2.3l-10.3-10.3c-3.1-2.3-7.7-0.8-8.8,2.9V53
			c-0.6,6.3,0.2,12.6,2.5,18.6l5.7,14.7c0.8,2.5,9.4,14,20.9,12.1l4-0.8c4-0.8,8,0.8,10.3,4l0.2,0.4c1,1.5,1.7,3.1,1.7,4.8l0,0
			c0,4.2-2.3,8.2-5.9,10.3l-31.2,18c-3.4,1.9-9.4,5.9-12.1,8.6c-6.1,6.3-6.1,12.4-12.8,17.2c0,0-11.5,6.7-20.9,0.4
			c0,0-7.7-4.2-2.5-11.9l19.5-31.6l1.9-8.2c-0.2-9-4-11.1-7.1-19.3l-8.2-20.7l-4.4-26.2c-2.1-8.4-9.6-15.1-18.6-14.9
			c-0.2,0-0.4,0-0.6,0C198.8,29,195,37.1,194.6,39s-1.3,9,1,17s6.7,14,8.6,21.2c1.9,7.1,7.7,38.7,6.3,46.1
			c-1.3,7.1-5.9,17.2-17.2,19.3c-9.8,1.9-19.5-4.4-21.8-14.2c-2.3-9.2-2.9-14.5-2.9-14.5s-4-12.6-12.6-11.7s-17.2,5-23.9,3.1
			c-6.7-1.9-18.4-14.5-26.6-10.9C97.4,97.9,73.9,109.4,84,114.6z" fill="#ffc107"/>
</svg>
