<?xml version="1.0" encoding="UTF-8"?>
<!-- Generator: Adobe Illustrator 19.2.1, SVG Export Plug-In . SVG Version: 6.00 Build 0)  -->
<svg version="1.1" id="Layer_1" xmlns="http://www.w3.org/2000/svg" xmlns:xlink="http://www.w3.org/1999/xlink" x="0px" y="0px" viewBox="0 0 478 286" style="enable-background:new 0 0 478 286;" xml:space="preserve">

<!-- <style type="text/css">
	.st0{fill:url(#SVGID_1_);}
</style> -->

<g id="FRANCIA">
	<g>

		<!-- <linearGradient id="SVGID_1_" gradientUnits="userSpaceOnUse" x1="19.294" y1="155.2511" x2="458.6359" y2="155.2511">
			<stop offset="0" style="stop-color:#00F4FF"/>
			<stop offset="1" style="stop-color:#1B5FE1"/>
		</linearGradient> -->
	
  	<path class="st0" d="M443.4,251.4c-0.7,0-1.5-0.1-2.3-0.2c-14.6-2.1-30.1-4.8-45.4-9.7c-32.6-10.6-65.8-21.2-97.9-31.5l-24.5-7.8    c-3.8-1.2-7.6-2.5-11.4-3.7c-9.5-3.1-19.2-6.3-28.9-9c-12.5-3.4-14.9,3.7-15.7,6.1c-2.4,7.1-8.7,11.7-17.3,12.8    c-5.6,0.7-11.3,1.1-16.8,1.5c-2.9,0.2-5.9,0.4-8.8,0.6c-8.6,0.7-17.3,1.3-25.7,1.8c-10.9,0.7-22.2,1.3-33.2,2.5    c-9.8,1-18.2-2.4-23-9.3c-4.6-6.7-5.1-15.7-1.3-23.5c1.2-2.5,2.3-5.4,3.2-9.3c1.7-6.9,1.3-10.7-1.7-13.6c-3.6-3.6-8.4-5.2-15.1-5    c-9,0.2-18.3,1.3-27.2,2.3c-4.4,0.5-9,1-13.6,1.4c-3.9,0.4-9.8,0.9-14.3-3.9c-0.8-0.8-1.2-1.8-1.4-2.9c-0.2-1.6-0.4-3.2-0.5-4.8    c-0.5-3.9-0.9-7.6-1.2-11.4c-0.2-2.4-0.7-8.8,6.3-11.4c2.7-1,5.4-2.1,8-3.2c3.5-1.4,7.2-2.9,11-4.2C54.7,112.7,65,109.3,75,106    c4.4-1.5,8.8-2.9,13.2-4.4c1.5-0.5,3.1-1,4.6-1.6l1.1-0.4c0.8-0.7,1.8-1.1,2.8-1.3c4.3-0.9,8.3-2.5,12.7-4.2    c2-0.8,4.1-1.6,6.2-2.4c17.5-6.2,35.4-12.3,52.7-18.1l4.1-1.4c4.7-1.6,9.5-3.3,14.5-4.4c5-1.1,10.1-2,15-2.9    c2.9-0.5,5.9-1,8.8-1.6c17.1-3.3,37.3-6.2,58-2.5c15.1,2.7,29.7,7.9,42.3,12.6c5.1,1.9,8.2,6,10,8.9c1.4,2.2,2.3,4.4,3.2,6.6    c0.4,1.1,0.8,2,1.3,3c1.1,2.3,2.3,4.6,4.2,5.8c1.6,1,3.2,1.5,7.7-2c10-7.6,13.9-8.5,24.7-0.8c8.5,6.1,16,11.8,22.7,17.2    c10.7,8.6,22.7,17,37.6,19.6c9.4,1.6,16.7,4.4,22.9,8.7c9.7,6.7,14,14.9,12.9,24.2c-1,8.9-5.3,16.2-11.9,20.6    c-6.5,4.3-14.7,5.4-23.3,3c-20.1-5.6-38.6-13.9-54.9-24.5c-9.1-6-20.1-12.8-31.8-18c-2.8-1.2-5.4-1.5-7.1-0.7    c-3,1.3-5.1,3.8-6.1,6.9c-1.1,3.7-0.5,7.8,1.7,11.3c7.4,11.9,18,20.2,33.4,26.3c6.5,2.5,13.2,4.7,19.7,6.9c3.2,1,6.3,2.1,9.5,3.2    c12.2,4.2,24.8,8.1,36.9,11.8c2.8,0.9,5.5,1.7,8.3,2.6c1.1,0.4,2.3,0.7,3.4,1.1c4.8,1.5,9.7,3,14.6,4.9c5.1,2,7.8,6.4,7.4,12.1    c-0.4,5.1-1.9,9.8-4.6,13.7C451.2,249.5,447.8,251.4,443.4,251.4z M226.9,178.6c2.7,0,5.6,0.4,8.6,1.3c9.9,2.7,19.8,6,29.4,9.1    c3.8,1.2,7.5,2.5,11.3,3.7l24.5,7.8c32.1,10.3,65.3,20.9,98,31.5c14.6,4.7,29.7,7.3,43.8,9.3c1.7,0.2,2.2,0,3-1.3    c1.6-2.4,2.6-5.4,2.9-8.7c0.1-1.6-0.4-1.8-1-2.1c-4.5-1.7-9.1-3.1-13.9-4.6c-1.2-0.4-2.3-0.7-3.5-1.1c-2.8-0.9-5.5-1.7-8.3-2.6    c-12.2-3.8-24.9-7.7-37.2-11.9c-3.1-1.1-6.2-2.1-9.4-3.1c-6.6-2.2-13.5-4.5-20.2-7.1c-17.3-6.8-29.8-16.7-38.2-30.3    c-3.7-6-4.7-13.1-2.8-19.5c1.8-5.9,5.9-10.6,11.5-13.1c4.4-2,9.8-1.7,15.3,0.7c12.3,5.5,23.7,12.6,33.2,18.8    c15.4,10.1,33,17.9,52.1,23.3c5.7,1.6,10.9,1,15-1.7c4.1-2.8,6.8-7.6,7.5-13.5c0.4-3.5,0-8.8-8.7-14.9c-5-3.5-11-5.7-18.9-7.1    c-17.2-3-30.4-12.2-42.2-21.7c-6.6-5.3-13.9-10.8-22.3-16.8c-1.6-1.2-5-3.6-6.3-3.5c-1.3,0.1-4.6,2.6-6.6,4.1    c-2.6,2-10.4,8-19.1,2.5c-4-2.5-6.3-6.5-7.9-10c-0.5-1.2-1-2.3-1.5-3.4c-0.8-1.8-1.5-3.6-2.4-5c-1.7-2.7-3.3-4.3-5.1-4.9    c-12.1-4.5-26.3-9.6-40.5-12.1c-19.1-3.4-38.2-0.6-54.4,2.5c-3,0.6-6.1,1.1-9,1.6c-4.8,0.8-9.8,1.7-14.5,2.8    c-4.5,1-8.9,2.5-13.5,4.1l-4.2,1.4c-17.3,5.9-35.1,12-52.6,18.1c-2,0.7-3.9,1.4-5.9,2.2c-3.6,1.4-7.4,2.9-11.3,4    c-0.2,0.5-0.6,0.9-1,1.4c-1.5,1.5-3.7,1.9-5.6,1c-1.3,0.4-2.6,0.9-3.8,1.3c-4.4,1.5-8.8,2.9-13.3,4.4c-9.9,3.3-20.2,6.7-30.2,10.1    c-3.5,1.2-7,2.6-10.4,4c-2.6,1.1-5.4,2.2-8.1,3.2c0,0.5,0,1.1,0.1,1.3c0.3,3.6,0.7,7.2,1.1,10.9c0.1,0.9,0.2,1.8,0.3,2.7    c1,0.3,2.4,0.3,5.1,0.1c4.4-0.4,9-0.9,13.4-1.4c9.1-1,18.6-2.1,28-2.3c9.5-0.3,16.9,2.3,22.5,7.9c7.2,7.2,6.1,16.2,4.3,23.2    c-1.2,4.6-2.4,8.1-4,11.3c-2.2,4.5-2,9.6,0.5,13.3c2.7,3.9,7.6,5.7,13.7,5c11.2-1.2,22.6-1.8,33.6-2.5c8.4-0.5,17-1,25.5-1.7    c3-0.3,6.1-0.5,9-0.7c5.3-0.4,10.9-0.7,16.2-1.4c2.7-0.4,7.5-1.6,9.1-6.2C210.8,183.4,217.7,178.6,226.9,178.6z M28.9,133    L28.9,133L28.9,133z" fill="#ffc107" />
	</g>
</g>
</svg>