<svg version="1.1" id="Layer_1" xmlns="http://www.w3.org/2000/svg" xmlns:xlink="http://www.w3.org/1999/xlink" x="0px" y="0px" viewBox="0 0 478 286" style="enable-background:new 0 0 478 286;" xml:space="preserve">

  <g id="QATAR">
    <g>

      <path class="st0" d="M208,265.9c-25.7,0-53.6,0-81-0.1c-4.4,0-8.7-0.4-12.7-1.2C106,263,100.4,258.3,98,251
			c-0.7-2.1-1-4.2-1.2-6.1l-0.1-0.8c-0.6-4.9,0-9.6,1.8-14c2.4-5.9,7.2-9.3,11.5-11.8c2.8-1.6,5.5-3.2,8.3-4.8
			c7.5-4.4,15.2-8.9,22.9-13.1c3.4-1.9,3.9-3.5,3.7-6.2c-0.2-2.2-0.6-2.6-1.3-3c-2.3-1.3-4.7-2.6-7-3.9c-5.5-3.1-11.2-6.3-16.9-9.2
			c-9.8-5-15.8-11.2-18.9-19.4c-0.4-1-0.8-2.1-1.2-3.1c-1-2.6-2-5.3-3-8c-1-3-2.1-5.9-3.1-8.9c-3.2-9.2-6.6-18.7-9.7-28.1
			c-1.1-3.5-2.4-7-3.7-10.4c-3-8.2-6.1-16.7-7.6-25.7c0-0.3-0.1-0.5-0.1-0.8v-1.4c0-0.3,0-0.7,0.1-1c0-0.1,0.1-0.3,0.1-0.4
			c0-0.1,0.1-0.2,0.1-0.3c0.6-7.6,4.6-13.4,11.4-16.6c7.4-3.5,16.2-7.3,25.9-9.2c11-2.1,20.2,2,25.1,11.2c2.4,4.6,4.1,9.4,5.7,14.1
			c0.3,0.8,0.5,1.5,0.8,2.3c2,5.9,4,11.9,5.9,17.7c1.2,3.6,2.4,7.4,3.7,11.1c0.5-4.1,0.9-8.2,1.3-12.1c0.8-7.2,1.6-14.6,2.5-21.9
			c1.1-8.7,2.7-17.3,4.2-25.7l0.2-1.3c1.5-8.6,6.5-14.8,14.2-18c1.5-0.6,3-1,4.3-1.3c0.5-0.1,1-0.2,1.5-0.4c0.4-0.1,0.9-0.2,1.3-0.2
			h3.3c0.4,0,0.8,0.1,1.2,0.2c0.4,0.1,0.8,0.2,1.1,0.3c0.9,0.2,2,0.5,3,0.8c9.7,3.1,16,10,18,20L208,43c1.3,6.6,2.6,12.9,6.7,17.6
			c2.1,2.4,4.2,4.8,6.3,7.1c1.9,2.1,3.9,4.3,5.8,6.5c0.5,0.5,0.9,1,1.4,1.6c2.4,2.7,4.8,5.4,6.8,8.6c1.9,2.9,2.5,6.5,2.8,8.9
			c0.9,8.1-0.9,15.6-3,22.4c-2.2,7-4.1,14.1-5.6,20c-0.2,0.6-0.1,1.5,0,2.8c0.1,0,0.2,0,0.3,0c6.2,0.3,12.1-2,17.2-4.2
			c12.3-5.2,20.9-15,27-23c7.6-9.8,12.6-21.5,16.8-31.6l0.9-2.1c3.8-9.2,7.7-18.8,11.6-28.2c2.5-5.9,5.5-10.1,9.6-13.1
			c4-3,8.6-4.6,13.5-4.8c6-0.2,12-0.2,17.8-0.2l0.5,0c1.8,0,3.5,0,5.3,0c0.8,0,1.5,0,2.3,0c2.3,0,4.9-0.1,7.4,0.1
			c7,0.5,12.8,4.3,17.2,11.1c2.5,3.9,4.7,7.9,6.8,11.8l1,1.9c2.8,5.1,5.8,10.6,9.2,17c5.8,10.9,4.8,21.8-2.8,30.7l-14,16.3
			c-6.4,7.4-12.8,14.8-19.1,22.2c-0.9,1.1-1.9,2.2-2.8,3.2c-0.8,0.8-1.5,1.7-2.3,2.5c-2.2,2.5-2,3-0.8,5c2.3,4,5,7.9,7.6,11.8
			c0.6,0.9,1.3,1.9,1.9,2.8c3.6,5.4,7.3,10.9,10.8,16.2l0.1,0.1c6.8,10.1,13.8,20.6,20.6,31c3.8,5.8,7.1,11.7,10.3,17.5
			c1,1.8,1.5,3.6,1.8,5.1c0.1,0.5,0.3,1.1,0.5,1.6c0.1,0.5,0.2,1,0.2,1.5v2.9c0,0.3,0,0.5-0.1,0.8c-0.7,4.4-2,7.9-4,10.8
			c-4.7,7-12.1,10.6-21.9,10.6c-45.2,0.1-91.2,0.1-135.6,0.1l-19.9,0C218.9,265.9,213.5,265.9,208,265.9z M82.4,73.1
			c1.3,8,4.2,15.9,7.1,23.5c1.3,3.5,2.6,7.1,3.8,10.7c3.1,9.3,6.4,18.8,9.6,27.9c1,3,2.1,5.9,3.1,8.9c0.9,2.6,1.9,5.2,2.9,7.7
			c0.4,1.1,0.8,2.1,1.2,3.2c2.2,5.9,6.5,10.1,14.1,14.1c5.9,3,11.6,6.2,17.2,9.4c2.3,1.3,4.7,2.6,7,3.9c5.7,3.2,6.2,8.7,6.4,10.8
			c0.6,7.1-2.3,12.3-8.9,15.9c-7.6,4.1-15.2,8.6-22.6,12.9c-2.8,1.6-5.5,3.2-8.3,4.9c-3.5,2-6.1,4-7.3,7c-1.2,2.8-1.5,5.8-1.1,8.9
			l0.1,0.8c0.2,1.6,0.4,3,0.8,4.2c1.3,3.8,4,6,8.7,6.9c3.4,0.7,7.1,1,10.8,1c33.3,0.1,67.3,0.1,97.2,0.1l19.8,0
			c44.5,0,90.5,0,135.7-0.1c6.5,0,10.8-2,13.6-6.2c1.1-1.7,1.9-3.7,2.3-6.5v-1.8c-0.1-0.5-0.2-0.9-0.4-1.4c-0.3-1.1-0.6-2.2-0.9-2.8
			c-3.1-5.6-6.3-11.4-9.9-16.8c-6.8-10.4-13.8-20.8-20.6-30.9l-0.1-0.1c-3.6-5.3-7.2-10.8-10.9-16.2c-0.6-0.9-1.3-1.9-1.9-2.8
			c-2.7-4-5.4-8.1-7.9-12.3c-3.5-6-2.9-11.1,1.9-16.6c0.8-0.9,1.5-1.8,2.3-2.6c0.9-1,1.8-2,2.7-3.1c6.4-7.4,12.8-14.8,19.1-22.2
			l14-16.3c5-5.8,5.5-12.1,1.6-19.4c-3.3-6.3-6.3-11.8-9.1-16.8l-1-1.9c-2.1-3.8-4.2-7.6-6.5-11.2c-3.5-5.5-7.1-6.4-9.5-6.5
			c-2.1-0.2-4.3-0.1-6.5-0.1c-0.8,0-1.6,0-2.4,0c-1.8,0-3.5,0-5.3,0l-0.5,0c-5.8,0-11.7,0.1-17.6,0.2c-2.9,0.1-5.4,1-7.8,2.8
			c-2.6,2-4.6,4.8-6.4,9c-3.9,9.4-7.8,18.9-11.6,28.1l-0.9,2.1c-4.4,10.7-9.8,23.1-18.1,33.9c-6.9,8.9-16.6,20-31,26.1
			c-6.1,2.6-13.3,5.3-21.6,5c-5.3-0.2-9-3.5-9.7-8.5c-0.4-2.7-0.3-4.8,0.2-6.8c1.6-6.1,3.5-13.3,5.8-20.4c1.8-5.8,3.3-12,2.6-18.3
			c-0.2-2.2-0.6-3.7-1.2-4.5c-1.7-2.5-3.9-5-6-7.5c-0.5-0.5-0.9-1.1-1.4-1.6c-1.9-2.1-3.8-4.3-5.7-6.4c-2.1-2.4-4.3-4.8-6.5-7.3
			c-5.8-6.7-7.5-14.9-9-22.2l-0.4-1.8c-1.3-6.5-5-10.6-11.2-12.5c-0.7-0.2-1.5-0.4-2.3-0.6c-0.2-0.1-0.4-0.1-0.7-0.2h-2
			c-0.4,0.1-0.8,0.2-1.1,0.3c-1.1,0.3-2.1,0.5-2.8,0.8c-4.7,1.9-7.3,5.3-8.2,10.6l-0.2,1.3c-1.5,8.3-3,16.9-4.2,25.3
			c-0.9,7.2-1.7,14.6-2.5,21.7c-0.5,4.5-1,9.1-1.5,13.6c-0.4,3.3-0.9,6.1-1.7,8.7c-1.2,4.1-3.9,5.2-5.5,5.5
			c-1.5,0.3-4.5,0.3-7.2-3.1c-1.5-1.9-2.8-4.1-3.5-6.3c-1.7-5.1-3.4-10.3-5.1-15.2c-1.9-5.8-3.9-11.7-5.9-17.6
			c-0.3-0.8-0.5-1.5-0.8-2.3c-1.5-4.3-3-8.8-5-12.6c-2.9-5.3-7.7-7.4-14.4-6.1c-8.7,1.7-16.8,5.2-23.6,8.4c-3.6,1.7-5.4,4.4-5.7,8.4
			c0,0.6-0.1,1.1-0.2,1.4L82.4,73.1L82.4,73.1z M229.3,138.8L229.3,138.8L229.3,138.8z M228.9,138.5L228.9,138.5L228.9,138.5z
			 M72.6,70.5C72.6,70.5,72.6,70.5,72.6,70.5C72.6,70.5,72.6,70.5,72.6,70.5z" fill="#ffc107"/>
    </g>
  </g>
</svg>
