

<svg version="1.1" id="Layer_1" xmlns="http://www.w3.org/2000/svg" xmlns:xlink="http://www.w3.org/1999/xlink" x="0px" y="0px"
	 viewBox="0 0 478 286" style="enable-background:new 0 0 478 286;" xml:space="preserve">

<path id="INDONESIA" d="M175.5,277.3
	c-4.1,0-6.9-1.6-8.8-2.8c-2.8-2.2-4.4-5.3-4.7-9.4c-0.3-4.4,4.1-35.8,6-49.3c0.3-4.7,3.1-12.9,11.3-15.4c6.3-1.9,25.1-7.8,28.2-8.8
	c3.5-0.9,5.6-2.5,6.3-4.7c1.6-3.8,1.6-6.6,1.6-10.7V175c0-4.7,0-28.6,0-28.9v-17.6c-0.3-0.6-0.9-2.5-5.3-4.1
	c-3.1-1.3-5.3-1.6-7.5-1.9c-3.5-0.6-7.2-0.9-12.9-4.4c-9.7-6-16.6-13.2-21.7-22.3c-5-9.1-16.6-29.8-16.6-29.8
	c-0.9-1.6-8.8-15.7-6.9-26.7c1.6-9.4,7.5-23.9,13.5-28.9c2.2-1.9,6.3-5.3,11.3-4.1c5.6,1.3,8.2,6.9,9.1,8.8
	c1.3,2.5,2.2,7.2-0.9,20.4c-0.6,2.8-1.6,5-1.9,6.9c-0.9,2.2-0.9,3.1-0.9,4.4c0,0.6,0,0.9,0,1.3c0.3,0,0.9,0,2.2,0l150-26.7
	c2.5-0.3,11-1.3,15.4,3.5c5.3,5.3,6.3,9.1,5.6,15.1c-0.3,4.1-2.5,34.8-2.5,36.1c0,2.5-0.6,7.2-2.8,10.4c-3.1,4.7-7.8,6.6-13.2,6.3
	c-1.6,0-2.8-0.3-3.8-0.3c-1.3-0.3-1.6-0.3-2.2,0c-0.9,0.9-2.5,3.1-3.8,5.6c0,0.6,0,0.9,0,1.3c0.9,2.5,5.3,8.2,8.8,12.2
	c3.5,3.8,16,16.9,17.6,18.2c1.9,1.9,2.5,4.7,2.8,12.2c0.3,7.2-1.9,34.2-1.9,37.3c0,0.9-0.6,6.3-4.7,11c-3.5,4.1-25.7,24.5-30.1,28.2
	c-0.9,0.9-5,4.4-14.8,4.7c-2.5,0-4.7,0-6.9,0c-4.7-0.3-8.5-0.3-11.9,0.9c-7.2,3.1-12.6,9.1-16.9,14.1l-0.9,1.3
	c-3.8,4.4-44.3,22.6-45.8,23.2l-0.3,0.3c-26.7,11.9-33.6,13.8-36.4,14.1C176.7,277.3,176.1,277.3,175.5,277.3z M196.5,107.8
	c3.5,2.2,5,2.5,7.8,2.8c2.5,0.3,5.6,0.6,10,2.2c10.4,3.8,13.5,11.3,13.8,15.1v18.2c0,0.9,0.3,24.5,0,29.2v1.3
	c0,4.7-0.3,8.8-2.5,14.8c-1.6,4.1-5.3,9.7-14.8,12.2c-2.8,0.6-21,6.3-27.9,8.5c-2.2,0.6-2.8,4.4-2.8,4.7v0.3
	c-2.8,20.4-6,43.6-6,46.8c0,0.3,0,0.6,0.3,0.6c0,0,0,0,0.6,0c0.3,0,0.6,0,0.9,0c0.9,0,6.6-1.6,32.6-13.2l0.3-0.3
	c10.7-4.7,38-17.6,42.1-20.4l0.6-0.6c4.7-5.6,11.6-13.2,21.7-17.3c6-2.5,11.6-2.2,17.3-1.9c1.9,0,4.1,0.3,6.3,0
	c4.7,0,6.6-1.3,6.6-1.6c10-9.4,26.4-24.5,28.9-27c1.6-1.9,1.9-4.1,1.9-4.1c0.6-7.8,2.2-30.1,1.9-35.8c0-2.5-0.3-4.1-0.3-5
	c-3.5-3.5-13.8-14.1-16.9-17.6c-2.2-2.5-9.1-11-11.3-16.3c-1.6-3.8-0.3-8.2,0-9.4l0.3-0.6l0.3-0.6c5.3-9.4,7.8-10.7,9.1-11
	c4.4-2.2,7.2-1.9,10.4-1.3c0.6,0,1.6,0.3,2.5,0.3c1.3,0,1.6,0,2.2-0.9c0.3-0.6,0.6-2.5,0.6-4.1c0-0.3,2.5-32,2.5-36.4
	c0.3-3.1,0.3-3.1-1.9-5.3c-0.9-0.3-3.1-0.3-5,0L178.9,60.8c-5,0.9-9.1,0-12.2-2.5c-2.8-2.2-4.4-6-4.7-10.7c-0.3-3.8,0.6-6.3,1.6-9.1
	c0.6-1.6,1.3-3.1,1.6-5.6c2.2-8.8,1.9-11.9,1.9-12.6c-0.3-0.3-0.3-0.6-0.3-0.6c-0.3,0.3-0.3,0.3-0.6,0.6c-2.5,2.2-7.8,13.2-9.1,21.3
	c-0.9,5,3.1,14.1,5.6,18.8c0,0,11.6,20.7,16.6,29.8 M303.2,209.5C303.2,209.5,302.9,209.8,303.2,209.5L303.2,209.5z M332.4,79.3
	L332.4,79.3L332.4,79.3z M333.6,33.8L333.6,33.8L333.6,33.8z" fill="#ffc107" />

</svg>
