<?xml version="1.0" encoding="UTF-8"?>
<!-- Generator: Adobe Illustrator 24.3.0, SVG Export Plug-In . SVG Version: 6.00 Build 0)  -->
<svg version="1.1" id="Layer_1" xmlns="http://www.w3.org/2000/svg" xmlns:xlink="http://www.w3.org/1999/xlink" x="0px" y="0px" viewBox="0 0 478 286" style="enable-background:new 0 0 478 286;" xml:space="preserve">

<!-- <style type="text/css">
	.st0{fill:none;stroke:url(#SVGID_1_);stroke-width:10;stroke-miterlimit:10;}
</style> -->

<!-- <linearGradient id="SVGID_1_" gradientUnits="userSpaceOnUse" x1="43.7883" y1="134.988" x2="424.4426" y2="134.988">
	<stop offset="0" style="stop-color:#f8f9fa"/>
	<stop offset="1" style="stop-color:#f8f9fa"/>
</linearGradient> -->

<path class="st0" d="M206.6,29.9l149.8,58.3c0,0,5.6,0,19.6,19.1s39.3,55.5,39.3,55.5s3.4,6.7,3.9,20.8s0,28,0,28s0.6,5.6-21.9,20.8  s-24.7,8.4-24.7,8.4s-9-5.6,7.9-24.1s19.1-26.9,19.1-26.9s2.2-9.5-7.3-20.8c-9.5-11.2-28-49.9-28-49.9s-9.6-10.3-28-1.1  c-26.3,13.1-141.9,55.5-141.9,55.5s-9.3,7.4-21.3-8.4c-12.5-16.5-16.3-10.7-16.3-10.7s-6.7,2.8-19.6,14.6s-32,3.4-32,3.4  s-14.2-10.6-41-41c0,0-24.1-14.6-11.8-21.3c0,0,18-5.2,23.6-2.8c5.6,2.4,7.3,12.9,7.3,12.9c4.5,9,2.8,19.1,22.4,18.5  c19.6-0.6,83.6-2.6,83.6-2.6s9.5,0.4,38.7-6.9c29.2-7.3,67.9-19.1,67.9-19.1s18-12.3-7.3-23.6c-25.2-11.2-76.3-23-76.3-23  S185,60,174.8,43.2C164.5,26.1,195.4,25.7,206.6,29.9z" stroke="#ffc107" stroke-width="10" fill="none"/>
</svg>