<?xml version="1.0" encoding="utf-8"?>
<!-- Generator: Adobe Illustrator 19.2.1, SVG Export Plug-In . SVG Version: 6.00 Build 0)  -->
<svg version="1.1" id="Layer_1" xmlns="http://www.w3.org/2000/svg" xmlns:xlink="http://www.w3.org/1999/xlink" x="0px" y="0px"
	 viewBox="0 0 478 286" style="enable-background:new 0 0 478 286;" xml:space="preserve">

<g id="GIAPPONE">

		<path class="st0" d="M72.4,268.2c-0.7,0-1.3-0.1-1.9-0.4l-3-1.1c-11.9-4.6-10.7-12.9-8.3-19.6c5.8-15.9,11.6-31.9,17.4-47.8
			c5.2-14.3,10.4-28.6,15.6-42.9c4.5-12.5,9-25,13.6-37.5c5.7-15.7,11.4-31.5,17.1-47.2c2-5.5,4.1-11,6.1-16.3
			c3-7.8,6-15.9,8.8-23.9c1.9-5.4,5.3-9.1,9.6-10.4c3-0.9,7.8-0.9,13.5,3.7c6.5,5.2,13.7,9.9,20.7,14.5c3.9,2.5,7.9,5.1,11.8,7.8
			c6.4,4.5,11.8,6.8,18.6,4.8c4.8-1.4,9.7-2.2,14.5-2.9c1.9-0.3,3.9-0.6,5.8-0.9c1.5-0.3,1.9-0.6,1.9-0.6c0,0,0.1-0.4,0.1-1.1
			c0-3.4,1.7-6.4,3-8.5c4-6.9,9.3-8.9,17.1-6.5c4.8,1.5,8.8,3.9,12.1,6C303.1,61.2,338.8,84.7,373,107c10.7,7,21.7,14,32.4,20.8
			l1.2,0.8c6.5,4.1,10.3,9.3,11.8,15.7c0.1,0.2,0.1,0.5,0.1,0.7l0,0.5c0.6,6.1-3.2,10.6-6.2,14.1c-0.8,0.9-1.5,1.7-2.1,2.5
			c-5.6,7.4-12.6,10-21.3,8c-3.6-0.8-6.5-2.3-9.3-3.8l-0.8-0.4c-14.8-7.6-29.7-15.2-44.5-22.8c-9.8-5-19.6-10-29.4-15
			c-26-13.3-46-23.4-64.8-33c-3.9-2-3.9-2-6.1,1.7c-1.4,2.2-2.1,4.9-2.9,7.7c-0.4,1.5-0.8,3-1.4,4.5c-4.5,12.9,2.8,18.7,9.6,21.2
			c15.8,5.9,33.2,12.2,54.6,19.8c13.7,4.9,27.6,9.7,41,14.5c15.1,5.3,30.7,10.8,46,16.2c5.7,2,9.5,5.8,10.7,10.7
			c1.1,4.7-0.5,9.9-4.5,14.2c-2.3,2.4-4.9,4.6-7.6,6.2c-7.9,4.8-15.9,9.7-23.6,14.4c-7.2,4.4-14.7,8.9-22,13.3
			c-5.9,3.6-13.1,5.5-20.8,5.3c-9.4-0.2-19.2-3.5-28.9-9.5c-6.7-4.2-13.5-8.5-20-12.7c-10.5-6.7-21.4-13.7-32.3-20.2
			c-8.7-5.2-14.4-4.5-19.9,2.3c-1.2,1.5-2.5,2.9-3.7,4.3c-1.4,1.6-2.8,3.1-4,4.6c-6.1,8.2-17.2,10.5-28.2,5.9
			c-10.1-4.2-14.2-12.9-17.9-20.5c-0.3-0.6-0.6-1.2-0.9-1.8c-3.4-7.1-6.8-14.3-10.1-21.3c-3.2-6.8-6.5-13.8-9.8-20.7
			c-2.1-4.4-3.4-5.1-5.3-5c-2.2,0.2-3.5,1-5.3,5.8c-1.4,3.7-2.9,7.3-4.4,10.8c-0.9,2.2-1.9,4.4-2.8,6.7c-2.5,6.2-5,12.3-7.5,18.5
			c-8.6,21.1-17.5,42.9-26,64.4c-1.6,4.2-4.8,9.9-12.8,11.4c0,0,0,0,0,0c0,0,0,0,0,0C73,268.1,72.7,268.2,72.4,268.2z M150.8,30.7
			c-0.2,0-0.3,0-0.5,0.1c-1.1,0.3-2.2,1.8-2.9,4c-2.8,8.1-5.9,16.3-8.9,24.2c-2,5.3-4.1,10.8-6,16.2c-5.7,15.7-11.4,31.5-17.1,47.2
			c-4.5,12.5-9,25-13.6,37.5c-5.2,14.3-10.4,28.6-15.6,42.9c-5.8,15.9-11.6,31.8-17.4,47.8c-1.9,5.2-1.3,5.4,2.5,6.9l1.5,0.6
			c1.7-0.6,2.9-1.8,4.2-5c8.5-21.6,17.4-43.4,26-64.5c2.5-6.2,5-12.3,7.5-18.5c0.9-2.3,1.9-4.5,2.8-6.8c1.5-3.5,3-7,4.3-10.6
			c1.3-3.4,4.4-11.5,14-12.2c9.6-0.7,13.4,7.2,15,10.6c3.3,6.9,6.6,14,9.8,20.8c3.3,7,6.7,14.2,10.1,21.2c0.3,0.6,0.6,1.2,0.9,1.9
			c3.3,6.9,6.1,12.8,12.7,15.6c6.9,2.9,13,1.9,16.4-2.6c1.4-1.9,3-3.7,4.5-5.3c1.2-1.3,2.3-2.6,3.3-3.8c6-7.5,16.5-14.4,32.8-4.6
			c11,6.6,21.9,13.6,32.5,20.3c6.5,4.2,13.2,8.4,19.9,12.6c8.2,5.1,16.3,7.8,23.9,8c4,0.1,9.9-0.5,15.3-3.8c7.3-4.5,14.8-9,22-13.4
			c7.7-4.7,15.7-9.5,23.6-14.3c2-1.2,3.9-2.8,5.6-4.6c1.7-1.8,2.4-3.6,2.1-5c-0.3-1.4-1.9-2.8-4.3-3.6c-15.3-5.5-30.9-10.9-46-16.2
			c-13.5-4.7-27.4-9.6-41.1-14.5c-21.4-7.6-38.8-13.9-54.7-19.9c-14.9-5.6-20.9-18.6-15.6-33.9c0.4-1.3,0.8-2.6,1.2-4
			c0.9-3.2,1.9-6.8,4-10.3c5-8.2,10.6-9.8,19.2-5.4c18.9,9.6,38.9,19.7,64.9,33c9.8,5,19.6,10,29.4,15c14.8,7.6,29.6,15.2,44.5,22.7
			l0.8,0.4c2.4,1.2,4.6,2.4,7,2.9c4.9,1.1,7.8,0,11.1-4.3c0.8-1,1.6-2,2.4-3c1.5-1.7,2.9-3.3,3.5-4.8l0.3-1l0-1.2
			c-0.9-3.7-3.2-6.5-7.3-9.2l-1.2-0.8c-10.7-6.8-21.7-13.8-32.5-20.9c-34.2-22.4-70-45.8-106.3-69.7c-2.7-1.8-5.9-3.7-9.5-4.8
			c-3.6-1.1-4-0.8-5.6,2c-0.5,0.8-1.6,2.7-1.6,3.4c0,4.4-1.7,10-10.3,11.6c-2,0.4-4.1,0.7-6,1c-4.6,0.7-9,1.4-13.2,2.6
			c-11.3,3.3-20-1.3-27.1-6.2c-3.8-2.6-7.7-5.2-11.5-7.6c-7.2-4.7-14.7-9.5-21.6-15.1C153.2,31.4,151.8,30.7,150.8,30.7z" fill="#ffc107"/>

</g>
</svg>
