<svg version="1.1" id="Layer_1" xmlns="http://www.w3.org/2000/svg" xmlns:xlink="http://www.w3.org/1999/xlink" x="0px" y="0px" viewBox="0 0 478 286" style="enable-background:new 0 0 478 286;" xml:space="preserve">

  <path class="st0" d="M322.7,263.1c-5.7,0-13.7-3.5-25.1-10.8c-26.2-16.8-55.6-39.3-55.9-39.5l-1.1-0.9l-0.2-0.6   c-1-1-4.8-1.9-13.1,3.4c-5.7,3.7-15.3,6.3-28.5-2.4c-6.1-4-10.6-9-11.9-10.5L149,172.2c-3.3-1.6-10.7-7.9-6.8-30.1   c3.1-17.5-14.1-25.1-15.4-25.7l-33.6-12.3c-8.9-3.3-24.2-14.6-18.8-34.1c5.4-19.3,17.8-35.4,20.2-38.4c0.9-1.6,3-3.9,7.6-5.2   c6.4-1.8,16.1-1.3,29,1.4c26.4,5.6,45.3,9.4,48.3,10c1.8,0.1,6.5,0.7,10.4,4.7c4.3,4.4,6.3,11.2,5.8,20.2c-0.4,6.6,2,11.6,7.1,15.4   c4.1,3.1,8.6,4.1,8.6,4.1l0.3,0.1l64.5,18c1.2,0.3,11.6,3.5,15.2,12.5c2.1,5.5,1.2,11.5-2.7,18c-4.4,7.2-10,9.2-13.9,9.6   c-10.6,1.1-20.1-7.9-22.3-10.1L238,119.5c-0.7-0.5-5.4-3.4-17.1-3.8c-16-0.6-31.1-14.7-33.4-16.9l-58.1-44.1l0,0   c0,0-5.5-3.9-10.8-3c-2.6,0.5-4.8,2.1-6.7,5.1c-6.4,9.7-1.8,17.2-0.3,19.3l19.2,11.7l140.8,63.4l0.3,0.2   c0.5,0.3,47.2,29.2,85.7,46.2l28.7,11.6c2,0.5,8.2,2.4,11.5,8.4c2.6,4.7,2.6,10.3,0.1,16.7c-2,5-5.5,8.6-10.1,10.3   c-9.5,3.5-20.8-1.5-23.7-2.9l-15.5-3.8c-1-0.1-5.1-0.3-8,5.2c-4,7.6-7.8,12.6-9.4,14.6c-0.5,1.5-1.7,3.2-3.6,4.2   C326.2,262.7,324.6,263.1,322.7,263.1z M248.4,205.3c4.3,3.3,30.8,23.4,54.6,38.5c11.8,7.5,17.1,8.9,19.1,9.2l0.9-1   c0,0,4.2-4.8,8.9-13.6c3.4-6.5,8.3-9,11.7-10c3.7-1,6.7-0.5,7.2-0.4l0.1,0l16.9,4.1l0.6,0.3c2.7,1.4,10.9,4.7,16.2,2.7   c2-0.7,3.4-2.2,4.3-4.6c1.4-3.5,1.6-6.3,0.5-8.2c-1.5-2.7-5.2-3.5-5.2-3.5l-0.5-0.1l-29.8-12c-37.5-16.6-82.7-44.2-86.7-46.7   L126.3,96.6l-21.1-12.9l-0.5-0.5c-0.3-0.4-3.3-3.8-4.9-9.4c-1.5-5.2-2-13.4,3.9-22.5c3.5-5.3,8-8.5,13.4-9.5   c9.4-1.7,17.6,4.1,18.5,4.8l58.7,44.6l0.2,0.2c0.1,0.1,14,13.8,26.9,14.2c15.2,0.6,21.5,4.8,23.1,6.1l14.9,10.8l0.3,0.3   c2,2.1,8.9,8,14.3,7.4c0.9-0.1,3.6-0.4,6.4-4.9c2.2-3.6,2.9-6.7,2-9c-1.5-3.8-6.7-6-8.6-6.5L209.3,92c-8.7-1.9-24.5-10.6-23.4-29.8   c0.3-5.9-0.6-10.2-2.8-12.5c-1.6-1.7-3.5-1.8-3.8-1.9l-0.7,0.1l-0.5-0.2c-0.2,0-20-4-48.9-10.1c-18.8-4-24.6-1.6-25.8-0.9l0,0.1   l-0.7,0.8c-0.1,0.2-13.4,16.3-18.7,35.2c-4.2,15.2,10.9,21.4,12.6,22l33.8,12.4c9.1,3.6,25.2,16,21.6,36.7   c-2.6,14.9,0.9,18.8,1.5,19.4l0.5,0.1l39.9,31.2l0.3,0.4c0,0,4.4,5.2,10.3,9.1c6.9,4.5,12.7,5.2,17.4,2.2   c7.7-4.9,14.4-6.7,19.9-5.3C245.3,202,247.4,204,248.4,205.3z" fill="#ffc107"/>

</svg>