<?xml version="1.0" encoding="utf-8"?>
<!-- Generator: Adobe Illustrator 19.2.1, SVG Export Plug-In . SVG Version: 6.00 Build 0) -->
<svg version="1.1" id="Layer_1" xmlns="http://www.w3.org/2000/svg" xmlns:xlink="http://www.w3.org/1999/xlink" x="0px" y="0px" viewBox="0 0 478 286" style="enable-background:new 0 0 478 286;" xml:space="preserve">
  <g id="AUSTRALIA">

    <path d="M73.4,232.7c-1.2,0-2.4,0-3.6-0.1c-8.4-0.3-15.5-2-21.7-5.2c-12.3-6.2-20.6-17-24.6-32.1
				c-2.9-10.9-4.2-22.8-4-36.4c0.2-10.7,1.7-19.5,4.9-27.5c4.1-10.3,10.9-22.4,27.2-24.3c0.2,0,0.5,0,0.7,0c0.1,0,0.2,0,0.3,0
				c5.2,0.2,9.9,2.2,14.5,6.2c3.5,3,7.3,6,11.9,7.4c1,0.3,1.6,0.3,1.8,0.3c0.1-0.2,0.3-0.9,0.3-2.2c0.1-3.8-0.8-7.6-1.8-11.7
				c-0.3-1.3-0.6-2.5-0.9-3.8c-2.1-9.9-4-19.7-3.6-29.8c0.4-10.6,4.1-19.2,10.9-25.6c6.1-5.7,13.3-9.3,21.3-10.6
				c6.8-1.1,14.2-0.5,21.9,1.9c9.2,2.8,17.9,6.6,26.4,10.4c1.6,0.7,3.3,1.4,4.9,2.1c10.2,4.4,19,6.7,27.5,7.2
				c8.5,0.5,16.6-1.2,23.9-4.9c2-1,4-2.1,6-3.1c5.8-3,11.8-6.2,18-8.9c7.9-3.5,16-5.3,24.1-5.1c7.1,0.2,14.3,0.1,21.2,0.1
				c3.8,0,7.6,0,11.4,0c7.9,0,15.7,2.1,23.3,6.1c3.3,1.8,7.9,4.8,9.7,10.5c2,6.3,0.5,12.4-4.4,18.3c-5.2,6.2-12.1,9.2-18.9,11.4
				l-1.3,0.4c-8.2,2.7-15.9,5.3-22,10.8c-1.6,1.4-3.2,2.7-4.7,4c-3.2,2.6-6.2,5.1-8.6,8c1.9,0,4-0.3,6.4-0.7
				c5.2-1,10.5-2.1,15.6-3.1c7.5-1.6,15.3-3.2,23.2-4.4c8.1-1.2,16-2,23.6-2.2c4.9-0.1,10.2,0.3,16,1.2c9,1.4,17.5,4.4,25.1,8.6
				c5.7,3.2,10.2,7.4,14.5,11.6c1.1,1,2.2,2,3.3,3.1c3.1,2.9,6.2,5.9,9.2,8.8c3,2.9,6,5.9,9.1,8.7c2.3,2.1,4.5,4.2,6.6,6.3
				c1.9,1.9,3.8,3.8,5.8,5.6l0.3,0.3c8.4,7.7,17,15.7,25.1,24.2c8.7,9.2,11.1,22.9,5.9,33.4c-4.1,8.1-10.9,14.2-20.4,18
				c-8,3.3-16,3-23.8-0.9c-4.9-2.4-9.2-6.1-12.8-10.7c-3.5-4.5-6.5-9.3-9.4-14c-1.3-2.1-2.7-4.4-4.1-6.5c-2.1-3.2-4.2-6.5-6.3-9.7
				c-3.3-5.3-6.8-10.7-10.4-15.8c-4.6-6.5-11.2-10.9-19.6-13.3c-8.9-2.5-18.3-2-29.4,1.6c-9.9,3.1-20,6.5-29.7,9.7
				c-4.8,1.6-9.6,3.2-14.4,4.8c-10.1,3.3-20.3,6.7-30.4,10c-13.3,4.4-26.6,8.8-39.9,13.2c-8.2,2.7-16.3,5.4-24.5,8.1
				c-5.7,1.9-11.4,3.8-17.1,5.7c-5.6,1.9-11.2,3.7-16.8,5.6c-11.9,3.9-24.2,8-36.3,12.1C96.3,230.4,84.7,232.7,73.4,232.7z
				 M52.6,117.1c-8.7,1.1-14.2,6.4-18.8,18c-2.7,6.9-4.1,14.5-4.2,23.9c-0.2,12.7,1,23.7,3.6,33.7c3.3,12.4,9.6,20.8,19.4,25.7
				c4.9,2.5,10.7,3.8,17.6,4.1c11.1,0.5,22.6-1.5,36.3-6.2c12.1-4.2,24.5-8.3,36.4-12.2c5.6-1.8,11.2-3.7,16.8-5.5
				c5.7-1.9,11.4-3.8,17.1-5.7c8.2-2.7,16.3-5.5,24.5-8.2c13.3-4.4,26.6-8.8,39.9-13.2c10.1-3.3,20.3-6.7,30.4-10
				c4.8-1.6,9.6-3.2,14.3-4.8c9.8-3.3,19.9-6.7,29.9-9.8c12.9-4.1,24.4-4.6,35.1-1.7c10.7,3,19.2,8.7,25.1,17.2
				c3.7,5.3,7.3,10.8,10.7,16.2c2,3.2,4.1,6.4,6.2,9.6c1.5,2.2,2.9,4.5,4.3,6.7c2.9,4.7,5.7,9.1,8.9,13.2c2.7,3.5,5.8,6.1,9.4,7.9
				c5.2,2.6,10.2,2.8,15.5,0.6c7.3-3,12.3-7.3,15.3-13.3c3.8-7.5,0.8-16.7-4.2-22c-7.8-8.2-16.4-16.1-24.6-23.8l-0.3-0.3
				c-2.1-1.9-4.1-3.9-6-5.8c-2-2-4.2-4.1-6.3-6.1c-3.2-2.9-6.3-6-9.4-9c-2.9-2.9-5.9-5.8-8.9-8.6c-1.1-1-2.3-2.1-3.4-3.2
				c-4.1-3.9-7.9-7.5-12.5-10.1c-6.7-3.8-13.9-6.2-21.8-7.5c-5.3-0.8-9.9-1.2-14.2-1.1c-7.2,0.2-14.7,0.9-22.3,2
				c-7.6,1.2-15.2,2.8-22.6,4.3c-5.2,1.1-10.5,2.2-15.8,3.2c-2.9,0.5-7,1.3-11.2,0.7c-3.7-0.5-6.5-2.5-7.6-5.3
				c-0.7-1.7-1.4-5.2,1.9-9.5c3.2-4.3,7.2-7.6,11.1-10.7c1.5-1.3,3-2.5,4.4-3.7c7.7-6.8,16.7-9.9,25.5-12.8l1.3-0.4
				c6.3-2.1,11-4.3,14.4-8.4c3.4-4.1,3.2-6.8,2.6-8.9c-0.6-1.8-2-3.1-4.9-4.7c-6.2-3.3-12.2-4.9-18.6-4.9c-3.8,0-7.6,0-11.4,0
				c-7,0-14.3,0.1-21.5-0.1c-6.6-0.2-13.1,1.2-19.8,4.2c-5.9,2.6-11.7,5.7-17.4,8.7c-2,1.1-4.1,2.1-6.1,3.2c-8.9,4.6-18.7,6.6-29,6
				c-9.8-0.6-19.6-3.1-30.9-8.1c-1.6-0.7-3.3-1.4-4.9-2.2c-8.2-3.6-16.7-7.3-25.3-9.9c-6.3-1.9-12-2.4-17.4-1.6c-6,1-11.4,3.7-16,8
				c-4.9,4.6-7.5,10.7-7.8,18.7c-0.3,8.9,1.3,17.6,3.4,27.3c0.3,1.2,0.5,2.4,0.8,3.6c1.1,4.5,2.2,9.1,2.1,14.2
				c-0.1,5.7-2.5,8.6-4.4,10.1c-1.9,1.4-5.3,2.8-10.6,1.2c-6.5-1.9-11.6-5.8-15.7-9.4C58,118.4,55.5,117.2,52.6,117.1z M264.5,108.3
				L264.5,108.3L264.5,108.3z M263.6,106.3L263.6,106.3L263.6,106.3z" fill="#ffc107"/>
  </g>
</svg>
