
<svg version="1.1" id="Layer_1" xmlns="http://www.w3.org/2000/svg" xmlns:xlink="http://www.w3.org/1999/xlink" x="0px" y="0px" viewBox="0 0 478 286" style="enable-background:new 0 0 478 286;" xml:space="preserve">

    <path class="st0" d="M382,206.8H83.9c-15.8,0-22.5-17.3-27.8-31.2c-1.5-3.8-2.9-7.4-4.3-10.3c-7-14-1.4-22.9,0.3-25.2
		c1-1.7,6.6-11.3,15.2-29c4.6-9.5,10.1-14.4,16.3-14.7c8.1-0.4,13,7.4,13.6,8.3l0.3,0.6l0.2,0.6c0,0.1,2.6,8.7,7.5,23.7
		c3.7,11.1,10.8,11.9,11.5,12l124.6,0c5.1,0,7.8-0.5,9.2-0.9c-0.3-0.3-0.6-0.7-0.9-0.9l-19-9.2c-14.6-6.5-21.7-5.2-22.5-5l-0.3,0.1
		l0,0c-0.2,0-18.4,4.8-41.3,10.5c-13.7,3.4-23-0.2-28.3-3.8c-5-3.4-7.6-7.5-8.4-8.9l-13.7-19l-0.2-0.4c-4.2-9.2-4.5-16.7-0.8-22.3
		c5.5-8.4,17.2-8.4,18.5-8.4l0.2,0c1,0.1,26,1.6,64.1,9.7c33.1,7,44.4-1.9,45.2-2.6l0.1-0.1l0,0c0.2-0.2,19.5-19.1,30.3-32.3
		c11-13.5,34.9-15.2,41.7-11C323,41.5,326.2,54,325.8,74c2.1,29.5,9.7,36.5,10.8,37.3l0.7,0.2l0.1,0.4c12.4,9.8,28.9,18.2,34.5,15.9
		c-0.8-3.6-6.8-12.7-13.7-20.7c-2.1-2.2-16.8-18.2-13.6-32.4c1-4.5,4.2-10.5,13.8-14.3c21.4-10.2,40.9,12,42.5,13.9
		c2.1,2.3,33.1,36.8,38.4,67.8c2.5,14.3-0.2,27-7.8,37.5c-15.9,22-47.8,26.9-49.2,27.1L382,206.8z M59.9,146.4
		c-0.5,0.6-3.8,5.4,0.8,14.5c1.6,3.3,3.1,7.1,4.7,11.1c4.5,11.6,9.6,24.8,18.5,24.8h297.3c3.2-0.6,29.6-5.6,42.2-23
		c6-8.3,8-18.4,6.1-29.9c-4.9-28.5-35.7-62.5-36-62.9l-0.1-0.2c-0.2-0.2-15.9-18.5-30.7-11.3l-0.4,0.2c-6.8,2.6-7.6,6.1-7.8,7.2
		c-1.7,7.8,7.7,19.8,11.1,23.4l0.2,0.2c5.1,5.9,16.9,20.5,16.3,28.9c-0.2,2.8-1.6,4.6-2.7,5.5c-6.3,5.4-16.3,4.2-30.6-3.6
		c-8.4-4.6-15.5-10-17.2-11.3c-3.3-2-13.4-10.7-15.8-45.6l0-0.2l0-0.2c0.5-21.7-4-27.4-5.9-28.8c-1.3-0.9-19.4-2.1-28.5,9
		c-11,13.5-29.8,31.8-31,33.1c-1.8,1.8-15.2,13.6-54.3,5.4c-36.1-7.6-60.6-9.3-62.5-9.4c0,0,0,0,0,0c-2,0-7.8,0.7-9.8,3.9
		c-2,3.1-0.4,8.3,1.3,12.2l13.5,18.8l0.2,0.4c0.2,0.5,6.8,12.5,25.5,7.8c22-5.4,39.7-10.1,41.1-10.4c1.9-0.6,11.4-2.6,29.5,5.5
		l0.2,0.1l20.1,9.8l0.4,0.3c1.3,1,7.6,6.3,5.4,12.5c-2.3,6.6-11.7,7.5-19.6,7.5H116.6c-0.7,0-14.8-0.4-20.8-18.8
		c-4.2-12.7-6.6-20.8-7.4-23.2c-0.9-1.2-2.7-3.1-4.3-3c-1.6,0.1-4.5,2.5-7.8,9.1c-9.8,20-15.6,29.7-15.8,30.1l-0.3,0.6L59.9,146.4z
		 M336.7,111.4L336.7,111.4L336.7,111.4z M307.1,44.5L307.1,44.5L307.1,44.5z" fill="#ffc107"/>

</svg>
