<?xml version="1.0" encoding="UTF-8"?>
<!-- Generator: Adobe Illustrator 19.2.1, SVG Export Plug-In . SVG Version: 6.00 Build 0)  -->
<svg version="1.1" id="Layer_1" xmlns="http://www.w3.org/2000/svg" xmlns:xlink="http://www.w3.org/1999/xlink" x="0px" y="0px" viewBox="0 0 478 286" style="enable-background:new 0 0 478 286;" xml:space="preserve">

<!-- <style type="text/css">
	.st0{fill:url(#SVGID_1_);}
</style> -->

<g id="GERMANIA_1_">
	<g>
		
    <!-- <linearGradient id="SVGID_1_" gradientUnits="userSpaceOnUse" x1="21.6152" y1="153.5503" x2="457.3714" y2="153.5503">
			<stop offset="0" style="stop-color:#00F4FF"/>
			<stop offset="1" style="stop-color:#1B5FE1"/>
		</linearGradient> -->

		<path class="st0" d="M336.3,264.7c-3,0-6.1-0.3-9.4-0.8c-8.8-1.4-17.3-4.7-25.7-10.1c-6.7-4.3-13.2-8.7-18.5-14.8    c-2.3-2.6-4.6-5.2-6.8-7.7c-3.2-3.6-6.5-7.3-9.7-11c-6.2-7.2-12.2-14.5-17.9-21.6c-2.8-3.5-4.7-7.5-5.7-11.9    c-1.4-6.7,0.6-12.9,6.3-18.9l1.4-1.5c5.3-5.5,10.7-11.3,15.9-17.1c6.4-7.2,14.3-10.4,23-9.3c5.8,0.8,11.6,3,17.9,6.7    c6.5,3.9,13.4,8.4,21.1,13.8c10.3,7.2,15.4,17.5,15.2,30.5c0,2.9-0.1,5.8-0.2,8.6c-0.1,2.9-0.2,5.9-0.2,8.8c0,2.3,0.8,5.1,3.2,5.4    c2.3,0.2,4.9-0.3,7.7-1.5c8.3-3.5,15-7.6,20.8-12.6c4-3.5,5.5-7.7,4-11.7c-1.1-3.2-3.3-6.2-6.7-9.4c-7.1-6.6-15.6-11.5-23-15.4    c-6.1-3.2-12.5-6.9-17.8-12.6c-6.6-6.9-9.7-15.4-9.1-25.2c0.7-11.4,5.3-22.2,14-33.1c0.4-0.5,0.8-1,1.2-1.4    c1.2-1.4,2.3-2.7,2.4-3.7c0.3-3.2-1.2-6.6-4-9c-3.1-2.6-7-3.5-10.5-2.6c-4.5,1.2-8.7,2.7-12.5,4.5c-5.8,2.7-11.5,6.3-16.9,9.7    c-0.9,0.6-1.9,1.2-2.8,1.8c-8.5,5.3-17.2,10.7-25.6,15.8c-4.9,3-9.7,5.9-14.6,8.9c-5,3.1-10.1,6.2-15.1,9.2    c-5.5,3.4-11.3,6.8-16.9,10.3c-4.6,2.9-9.3,5.7-13.9,8.6c-7.4,4.5-15,9.2-22.4,13.9c-5.8,3.6-11.7,7.2-17.5,10.6    c-6,3.5-12.1,7.2-18,11c-11.2,7.1-22.6,14.1-32.2,19.9c-4.8,2.9-9.5,5.8-14.2,8.7c-8.3,5.1-16.8,10.4-25.3,15.5    c-2.3,1.4-4.7,2.8-7,4.2c-6.1,3.7-12.4,7.6-18.9,11c-4,2.2-8.8,3.2-14.2,3c-7.2-0.2-13-6-14.8-14.7c-1.2-5.7-0.8-11.2-0.4-16.5    c0.1-1.8,0.3-3.5,0.3-5.2c0.2-6.5,0.6-13.2,0.9-19.6c0.2-4.5,0.4-8.9,0.6-13.4c0.4-9,0.7-18.2,1-27.4c0.1-2.2,0.1-4.5,0.1-6.7    c0-2.8,0.1-5.7,0.2-8.6l0-0.3c0.2-5.3,0.5-10.8,2.4-16.4c4.1-11.7,12.9-20.2,26.3-25.3c7.6-2.9,15.4-4.7,22.9-5.2    c4.6-0.3,9.2-0.2,13.6-0.1c3.4,0.1,6.7,0.2,10,0c3.4-0.1,6.7,0,9.9,0.2c1.9,0.1,3.8,0.2,5.6,0.2c3.3,0.1,6.6,0.1,9.9,0.1    c3.5,0,7,0.1,10.5,0.1c2,0,4,0.1,5.9,0.2c3.1,0.2,5.9,0.3,8.8,0.2c3.9-0.1,7.9,0,11.7,0.1c3.1,0.1,6.3,0.2,9.4,0.1    c3.1-0.1,6.3,0.1,9.3,0.2c2,0.1,4.1,0.2,6.1,0.2c4.1,0.1,8.3,0.1,12.4,0.1c2.8,0,5.7,0,8.5,0c1.9,0,3.9,0.1,5.8,0.1    c3.7,0.1,7.2,0.2,10.7,0c7.3-0.3,14.9-1.5,24-3.8c7.9-2,14.6-4.5,20.5-7.8c6.8-3.8,13.6-8,20.2-12c4-2.5,8.2-5,12.3-7.4    c0.7-0.4,1.4-0.8,2.1-1.2c5.2-3.1,10.7-6.4,17.1-8.3c8.8-2.6,17.3-2.9,25.9-0.7c3.2,0.8,6.3,1.7,9.3,2.6c2.1,0.6,4.3,1.3,6.4,1.9    c10.6,2.9,20.3,7.1,28.9,12.7c12,7.7,21.9,17.6,30.8,27c7.6,8.1,15,16.4,21.9,24.1c3.9,4.4,7.1,9.5,9.3,14.9    c0.4,1.1,0.7,2.2,0.9,3.1c0.2,1,0.5,1.9,0.8,2.3c2.1,1.6,2.6,4.5,1.2,6.7c-0.2,0.2-0.1,1.3,0,2.1c0.1,0.9,0.1,1.9,0.1,3    c-0.6,10.6-4.8,20.2-12.2,28.6l-4.8,5.4c-6.3,7-12.7,14.3-19.2,21.4c-7.7,8.5-15.6,16.7-23.2,24.7c-8.2,8.6-16.8,16.8-23.3,23    c-7.7,7.3-14.6,11.8-22.4,14.7C346.7,263.8,341.8,264.7,336.3,264.7z M285.8,149.9c-4.4,0-8.4,2-12,6.1    c-5.3,5.9-10.8,11.8-16.1,17.4l-1.4,1.5c-3.4,3.6-4.5,6.5-3.8,9.9c0.6,2.8,1.8,5.4,3.7,7.7c5.6,7,11.6,14.2,17.7,21.3    c3.1,3.6,6.4,7.3,9.5,10.9c2.3,2.6,4.6,5.2,6.9,7.8c4.5,5.1,10.3,9.1,16.4,13c7.3,4.7,14.4,7.5,21.9,8.7    c7.6,1.2,13.8,0.7,19.6-1.4c6.4-2.4,12.3-6.2,19-12.6c6.5-6.1,14.9-14.3,23-22.7c7.6-8,15.4-16.2,23.1-24.6    c6.4-7,12.9-14.3,19.1-21.3l4.8-5.4c6-6.7,9.2-14.1,9.7-22.6c0-0.4,0-1-0.1-1.6c-0.1-1.2-0.2-2.8,0.1-4.5c-1-1.7-1.5-3.5-1.8-4.9    c-0.2-0.7-0.3-1.4-0.5-1.8c-1.8-4.4-4.3-8.4-7.4-12c-6.9-7.7-14.2-15.9-21.7-23.9c-8.4-9-17.8-18.3-28.9-25.5    c-7.8-5-16.6-8.8-26.2-11.4c-2.3-0.6-4.5-1.3-6.7-1.9c-3-0.9-5.9-1.8-8.8-2.5c-6.9-1.7-13.6-1.5-20.7,0.6    c-5.2,1.6-9.9,4.3-14.8,7.3c-0.7,0.4-1.4,0.8-2.1,1.3c-4.1,2.4-8.2,4.9-12.2,7.4c-6.7,4.1-13.6,8.3-20.6,12.2    c-6.7,3.7-14.2,6.6-23,8.8c-9.7,2.4-18,3.7-25.9,4.1c-3.9,0.2-7.7,0.1-11.5,0c-1.9-0.1-3.8-0.1-5.6-0.1c-2.8,0-5.6,0-8.5,0    c-4.1,0-8.3,0-12.5-0.1c-2.2,0-4.3-0.1-6.4-0.2c-3-0.1-5.8-0.3-8.7-0.2c-3.3,0-6.6,0-9.8-0.1c-3.8-0.1-7.4-0.2-11-0.1    c-3.3,0.1-6.5-0.1-9.6-0.2c-1.9-0.1-3.7-0.2-5.6-0.2c-3.5-0.1-6.9-0.1-10.4-0.1c-3.3,0-6.7,0-10-0.1c-2,0-4-0.1-5.9-0.2    c-3.1-0.2-6.1-0.3-9.1-0.2c-3.6,0.1-7.1,0-10.5,0c-4.4-0.1-8.5-0.2-12.7,0.1c-6.7,0.5-13.2,1.9-20,4.6    C46.8,101.8,40.2,108.1,37,117c-1.5,4.2-1.7,8.7-1.9,13.5l0,0.3c-0.1,2.7-0.2,5.5-0.2,8.2c0,2.3-0.1,4.6-0.1,6.9    c-0.3,9.3-0.7,18.5-1,27.5c-0.2,4.5-0.4,9-0.6,13.5c-0.3,6.4-0.6,13-0.9,19.5c-0.1,1.9-0.2,3.8-0.3,5.6c-0.3,4.8-0.7,9.4,0.2,13.8    c0.6,3.1,2.4,6.6,5.3,6.7c3.6,0.1,6.7-0.5,9.2-1.8c6.2-3.4,12.4-7.1,18.4-10.8c2.3-1.4,4.7-2.9,7-4.3c8.4-5,17-10.3,25.2-15.4    c4.8-2.9,9.5-5.9,14.3-8.8c9.6-5.8,20.9-12.8,32-19.9c6-3.8,12.3-7.5,18.3-11.1c5.7-3.4,11.6-6.9,17.3-10.5    c7.5-4.7,15.1-9.4,22.5-13.9c4.6-2.8,9.3-5.7,13.9-8.6c5.6-3.5,11.4-7,17-10.3c4.9-3,10-6.1,15-9.1c4.9-3,9.7-6,14.6-8.9    c8.4-5.1,17.1-10.4,25.5-15.7c0.9-0.6,1.9-1.2,2.8-1.8c5.7-3.6,11.6-7.4,18.1-10.4c4.3-2,9-3.7,14.1-5.1c6.7-1.8,14-0.1,19.6,4.6    c5.3,4.5,8.2,11.1,7.5,17.6c-0.4,4.2-2.8,7-4.8,9.3c-0.3,0.4-0.7,0.8-1,1.2c-7.4,9.2-11.3,18.1-11.8,27.4    c-0.4,7,1.7,12.8,6.4,17.7c4.4,4.6,9.9,7.8,15.3,10.6c7.9,4.2,17.2,9.5,25.1,16.9c4.6,4.3,7.6,8.6,9.3,13.4    c2.8,7.9,0.2,16.4-6.9,22.6c-6.5,5.7-14.2,10.4-23.4,14.3c-4.4,1.8-8.6,2.6-12.6,2.2c-7.3-0.7-12.4-7.1-12.2-15.5c0-3,0.1-6,0.2-9    c0.1-2.8,0.2-5.6,0.2-8.4c0.1-9.8-3.3-16.8-10.9-22.1c-7.5-5.3-14.1-9.6-20.4-13.3c-5.1-3-9.8-4.8-14.2-5.4    C287.2,149.9,286.4,149.9,285.8,149.9z" fill="#ffc107" />
	</g>
</g>
</svg>