<?xml version="1.0" encoding="utf-8"?>
<!-- Generator: Adobe Illustrator 19.2.1, SVG Export Plug-In . SVG Version: 6.00 Build 0)  -->
<svg version="1.1" id="Layer_1" xmlns="http://www.w3.org/2000/svg" xmlns:xlink="http://www.w3.org/1999/xlink" x="0px" y="0px"
	 viewBox="0 0 478 286" style="enable-background:new 0 0 478 286;" xml:space="preserve">

	<path class="st0" d="M260.6,266.5c-1.3,0-2.7-0.1-4.2-0.4c-6.3-1-22.1-15.2-26.5-20.2c-1.1-1-6-5.4-10.8-9.7
		c-3.2-2.9-5.7-5.3-7.5-7c-1.8-1.7-3.4-3.3-4.2-4.8c-1.2-1.3-4.9-4.7-8.3-7.7c-1.4-0.2-2.8-0.4-3.5-0.4c-2.8,1.3-12.6,5.5-13.7,6
		c-0.1,0.1-0.3,0.1-0.4,0.1c-1.2,0.4-12.1,3.5-17.9,3.4c-13.8-0.3-15.2-0.9-16.2-1.4c-0.2-0.1-0.4-0.2-0.7-0.3
		c-6.3-2.5-15.3-6.5-19.9-12.6c-6-7.9-6.6-17.9-6.4-19.9c0.2-2.6,2.2-10,8.9-13c6-2.7,58.6-7.3,62.7-7.3c2.9-0.1,34-3.2,56.6-5.5
		c25.3-2.6,31.3-3.2,33.1-3.3c25.4-2.8,34.5-3.8,37.8-4.1c-5.8,0-14,0-22.9,0.1c-14.6,0-31.7,0.1-45.1,0.1c-6.7,0-12.5,0-16.6,0
		c-2.1,0-3.8,0-4.9-0.1c-1.2,0-2.5-0.1-3.7-0.5c0.5,0.2,1,0.4,1.4,0.4c-3.6-0.3-66.7-0.6-108.2-0.7c-7.2,0-20.9-3.7-21-17.7
		c-0.1-9.7,5.6-14,7.1-15c1.7-1.2,4.2-2.6,6.6-2.7c0.2,0,0.4,0,0.6-0.1c1.7-0.2,5-0.7,8.5,0.2c-0.3-0.6-0.7-1.2-1.1-1.8
		c-0.5-0.9-1-1.6-1.3-2.1c-2.2-3.4-6.6-21.4-2.8-35.5c0-0.1,0.1-0.3,0.1-0.4l4.3-11.9c0.2-0.5,0.5-1,0.9-1.5l10.1-12.1
		c0.4-0.4,0.8-0.8,1.3-1.1l12.3-7.1c0.3-0.2,0.7-0.3,1.1-0.5l23.5-7.1l26.7-8c0,0,0.1,0,0.1,0l25-6.9l18.5-5.4
		c0.1,0,0.3-0.1,0.4-0.1l5.4-1.1c0.3-0.1,0.7-0.1,1-0.1c1.7,0,4.9,0.2,7.1,1.7c3,2,5.9,8.9,6.4,11.4c1.1,5.4,1.5,9.1,1.4,11
		c0,2,1.1,13.3,3.3,33.5c0.2,1.7,0.3,2.8,0.3,3.2c0.1,1.3,0.8,5,1.3,7.4c1.4,3.1,3.1,6.3,3.8,7.1c4.7,4.1,8.7,6.9,10.1,7.3
		c4.7,0.3,10.2,0,11.5-0.6c2.1-1.3,6.5-4.5,9.3-6.6c2.3-1.7,3-2.3,3.6-2.6c0.2-0.1,0.5-0.3,0.9-0.6c5.7-3.9,9.9-6.4,13.2-6.6
		c3.2-0.2,14.8,0.1,17.9,1.1c7.5,2.3,17.7,15.3,31.7,35.5c1.4,2,2.6,3.8,3,4.3c0,0.1,0.1,0.1,0.1,0.2l17.8,22.1
		c0.2,0.2,0.4,0.5,0.5,0.8c2.9,5.5,5.7,12.9,2.8,17.5c-0.4,0.6-1.5,2.9-2.5,4.9c-7.4,15.1-10.6,20.2-15,21
		c-3.2,0.6-66.4,1.5-100.9,2c0,0,0.1,0.1,0.1,0.1c1.7,1.3,3.4,2.4,3.9,2.8c2.5,1.7,5,6,6.7,9.3c0.2,0.4,0.3,0.7,0.4,1.1
		c0.4,1.6,2.2,9.7,2.4,11.1c0.2,1.4,0,3.2-0.9,8.9c-0.2,1.2-0.5,2.9-0.5,3.4c-0.3,8.1-6.5,20.6-12.3,27.8
		C273.3,261.3,269.4,266.5,260.6,266.5z M258.2,256.3c5.5,0.9,7.3-1.4,7.6-1.9c0.2-0.5,0.3-0.6,0.7-1.1c5.1-6.3,10.1-17.1,10.3-22.3
		c0-0.8,0.2-1.8,0.6-4.5c0.3-1.7,0.8-4.8,0.9-5.9c-0.3-1.3-1.2-5.6-2.1-9.6c-1.1-2.1-2.5-4.3-3.1-5c-0.7-0.5-2-1.4-4.1-2.9
		c-2.8-2-8.4-6.1-9.8-6.9c-3.3-1.3-4.5-4.5-4-7.1c0.5-2.3,2.5-4,4.8-4c41.5-0.6,103.7-1.5,113-2c2.3-2.6,6.8-11.9,8.6-15.6
		c1.3-2.7,2.1-4.3,2.7-5.4c-0.1-1.4-1.3-4.8-2.7-7.5l-20.4-25.4c-0.4-0.5-0.7-1.1-0.9-1.7c-17-24.5-23.6-30.5-26.2-31.3
		c-1.7-0.4-11.2-0.9-14.3-0.7c-0.7,0.2-2.7,1-8.3,4.9c-0.7,0.5-1.1,0.8-1.4,0.9c-0.3,0.2-1.6,1.2-2.7,2c-3.2,2.4-7.6,5.7-10.3,7.3
		c-4.5,2.7-13.8,2.3-17.6,2c-1.3-0.1-5.1-0.4-15.8-9.8c-2.1-1.8-4.7-7-6.4-11c-0.1-0.3-0.3-0.7-0.3-1c-0.1-0.7-1.4-6.6-1.6-8.9
		c0-0.3-0.2-1.5-0.3-3.1c-3.5-32.6-3.4-34.4-3.3-35.4c0-0.9-0.4-4.2-1.2-8.2c-0.2-1-1.5-3.6-2.3-4.9c-0.3,0-0.6-0.1-1-0.1l-4.6,0.9
		l-18.3,5.3l-25,6.9l-26.7,8L149.7,58l-11,6.4l-9,10.7l-4,10.8c-2.8,10.7,0.5,25,1.7,27.4c0.3,0.5,0.8,1.3,1.3,2.1
		c1.3,2.2,4.5,7.2,5.4,8.2c1.5,1.5,2.2,3.8,1.8,6.2c-0.4,2.7-2.2,5.3-4.5,6.5c-3.7,1.8-7.6-0.7-9.1-1.8c0,0-0.1-0.1-0.1-0.1
		l-2.2-1.8c-1.7-1.1-4.1-0.7-5.8-0.5c-0.4,0.1-0.8,0.1-1.2,0.1c-0.4,0.2-1.1,0.6-1.6,0.9c-0.2,0.1-0.2,0.1-0.3,0.2
		c-0.5,0.3-2.5,2.1-2.4,6.4c0.1,7.7,10.6,7.8,11,7.8c0,0,27.2,0.1,54.3,0.2c15.8,0.1,28.4,0.2,37.4,0.2c5.1,0,9.4,0.1,12.4,0.1
		c3,0.1,5,0.1,6.4,0.5c-0.4-0.2-0.8-0.2-1.2-0.3c2.9,0.2,41.9,0.1,67.7,0c16.3-0.1,29.2-0.1,31.4-0.1c13.7,0.2,16.2,1.6,17.9,3.3
		c3.2,3.2,2.6,8.2,0.4,11.2c-1.7,2.4-4.8,3.1-7.5,3.7l-0.2,0c0.2,0,0.3-0.1,0.4-0.1c-1.3,0.4-14.9,1.5-17.1,1.6v0
		c-1.4,0.1-24.2,2.6-39.2,4.3c-0.2,0-0.3,0-0.5,0c-1.8,0.1-17.5,1.7-32.6,3.3c-31.7,3.2-54.3,5.5-57.4,5.6
		c-6.6,0.1-53.8,4.8-58.9,6.5c-2,1-2.8,3.9-2.9,4.6c0,1.4,0.7,8.1,4.4,13.1c2.3,3,7.5,6.2,15.6,9.4c0.3,0.1,0.5,0.2,0.8,0.3
		c1.7,0.2,7.7,0.5,12.7,0.6c3.1,0.1,10.5-1.8,14.6-3c1.8-0.8,11.8-5.1,13.2-5.8c2.2-1.1,5.9-1.1,10.9,0c0.8,0.2,1.6,0.6,2.2,1.1
		c0.1,0.1,2.8,2.4,5.5,4.9c2.9,2.6,5.2,4.7,6.2,6.7c2.2,2.4,11.8,11.2,20.4,18.9c0.2,0.1,0.3,0.3,0.5,0.5
		C241.8,244.4,255,255.2,258.2,256.3z M265.8,254.4L265.8,254.4L265.8,254.4z M216.1,224.9C216.1,224.9,216.1,224.9,216.1,224.9
		C216.1,224.9,216.1,224.9,216.1,224.9z M196.1,216.1L196.1,216.1L196.1,216.1z M151.5,215.4c0.1,0.1,0.2,0.1,0.3,0.1
		C151.7,215.5,151.6,215.4,151.5,215.4z M150.9,215.2L150.9,215.2L150.9,215.2z M273.2,206C273.2,206,273.2,206,273.2,206
		C273.2,206,273.2,206,273.2,206z M259.3,196.2c0.1,0,0.1,0.1,0.2,0.1C259.5,196.3,259.4,196.2,259.3,196.2z M372.5,183.5
		L372.5,183.5L372.5,183.5z M281.8,172.5c0.1,0,0.2,0,0.5,0C282.1,172.5,281.9,172.5,281.8,172.5z M384.4,162.3L384.4,162.3
		L384.4,162.3z M339.2,156.2C339.2,156.2,339.2,156.2,339.2,156.2C339.2,156.2,339.2,156.2,339.2,156.2z M111,133.5L111,133.5
		L111,133.5z M112.4,132.3C112.4,132.3,112.4,132.3,112.4,132.3C112.4,132.3,112.4,132.3,112.4,132.3z M113.1,132.2L113.1,132.2
		L113.1,132.2z M112.4,122.3C112.4,122.3,112.4,122.3,112.4,122.3C112.4,122.3,112.4,122.3,112.4,122.3z M127.4,113.2
		C127.4,113.2,127.4,113.2,127.4,113.2C127.4,113.2,127.4,113.2,127.4,113.2z M270.4,95.1C270.4,95.1,270.4,95.1,270.4,95.1
		C270.4,95.1,270.4,95.1,270.4,95.1z M261.8,44.1c0,0.1,0,0.1,0,0.2C261.8,44.2,261.8,44.2,261.8,44.1z M247.9,29.5L247.9,29.5
		L247.9,29.5z" fill="#ffc107"/>

</svg>
