<?xml version="1.0" encoding="UTF-8"?>
<!-- Generator: Adobe Illustrator 19.2.1, SVG Export Plug-In . SVG Version: 6.00 Build 0)  -->
<svg version="1.1" id="Layer_1" xmlns="http://www.w3.org/2000/svg" xmlns:xlink="http://www.w3.org/1999/xlink" x="0px" y="0px" viewBox="0 0 478 286" style="enable-background:new 0 0 478 286;" xml:space="preserve">

<!-- <style type="text/css">
	.st0{fill:url(#SVGID_1_);}
</style> -->

<g id="Gran_Bretagna_1_">

	<!-- <linearGradient id="SVGID_1_" gradientUnits="userSpaceOnUse" x1="72.0618" y1="142.3875" x2="404.2888" y2="142.3875">
		<stop offset="0" style="stop-color:#00F4FF"/>
		<stop offset="1" style="stop-color:#1B5FE1"/>
	</linearGradient> -->

	<path class="st0" d="M360.7,264.1c-1.5,0-3.2-0.1-4.9-0.2c-0.1,0-0.2,0-0.3,0c-14.5-2.2-38.2-5.7-40.2-5.9c-1.4-0.1-9.2-1.2-29-4.2   c-1.7-0.3-2.9-0.4-3.4-0.5c-0.9,0-3.7,0.6-5.4,1c-1.3,0.3-2.6,0.6-3.7,0.8c-1,0.2-2.1,0.5-3.2,0.9c-1.8,0.6-3.9,1.3-6.4,1.4   c-5.7,0.3-22.1-9.8-23.8-11.4c-1.1-1-5.1-3-7.4-2.3c-1.1,0.3-2.6,1-4.2,1.6c-5,2.1-11.2,4.8-16.6,3.6l-0.7-0.2   c-5.7-1.2-17.5-3.8-23.3-25.2c-2.5-9-6.3-12-10.4-15.2c-1.4-1.1-2.7-2.1-4-3.4l-95.2-81.9c-0.2-0.2-0.4-0.4-0.6-0.6   c-0.3-0.4-3.1-3.8-4.8-8.5c-2.6-7-1.5-13.7,2.9-18.8c0.3-0.3,0.6-0.6,1-0.9c1.4-1,8.8-5.8,11.2-7c3.1-1.6,10.9-4.9,11.2-5.1   c0,0,0,0,0,0c3.3-1.4,8.2-4.5,10.5-6c0.5-0.3,0.9-0.6,1.2-0.7c1.3-0.8,13.2-8.7,14.4-9.5c0.9-0.6,2.3-1.4,5.6-3   c1.4-0.7,3.6-1.8,4.2-2.2c1.9-1.3,11.9-6.8,12-6.8c0.1,0,0.2-0.1,0.4-0.3c-0.5-0.7-1-1.6-1.6-2.5c-0.4-0.6-0.8-1.2-1.2-2   c-3.2-5.1-2.9-11.2,0.7-16.3c0.1-0.1,7.7-10.7,16.2-11.8c5.5-0.7,20.6,0.7,25.2,4.1c1.8,1.4,5.6,5.6,13.3,14.5   c2.2,2.5,4.9,5.6,5.6,6.4c0.9,0.7,2.7,2.7,16.3,19.8c2.4,3,4.8,6,5.2,6.5c0.5,0.6,3.4,4.1,9.6,11.9c4.2,5.2,9.4,11.7,10,12.4   c0,0,9.1,10.4,10.3,15.2c1.1,4.2,0.3,14-0.4,16.8c-0.7,3-4.6,12.4-7.6,16.6c-1.5,2.1-2.1,5.5-2.1,6.4c0,0.1,0,0.3,0,0.6   c0.3,8,2.4,13.5,4.1,16.7c0,0.1,0.1,0.2,0.1,0.3c1.2,2.7,3.1,6.1,3.9,7c2,2.3,5.4,5.9,7.8,8.3c3.6,3.6,5.3,8.5,4.4,12.6l-0.1,0.5   c-0.6,2.8-1.6,7-6.5,9c-2,0.8-7.4,1.3-12.4,1.6c5.9,0.9,13.9,1.9,16.4,1.7c5.3-2.7,35.3-26,46.8-34.9c5.9-4.6,7.8-6.1,8.6-6.6   l15-12.1c4-3.6,8.7-8.3,9.5-9.6c1.4-2.6,2.7-5.5,3.4-7.5c-0.4-0.2-0.9-0.4-1.3-0.6c-10.2-4.8-13.9-6.8-15.3-9.3   c-0.1-0.1-0.2-0.3-0.3-0.5c-7.8-12.2-2.1-21.5,4.2-27.1c10.8-9.8,23.9-4.8,31.9,2.4c0.3,0.3,30.6,31,31.9,33.7   c0.1,0.1,0.1,0.2,0.2,0.4c1.3,2.4,5.2,9.7,4.3,18.5c-0.8,8.3-12.6,86.5-13.1,89.8c0,0.3-0.1,0.6-0.2,0.9c-0.2,0.5-1.9,5.4-7.3,9.8   C379.4,260.3,372.2,264.1,360.7,264.1z M356.9,253.9c18.4,1.5,23.6-8,24.4-9.8c1.1-7.2,12.2-81,12.9-88.7   c0.6-5.8-2.2-10.9-3.2-12.8c-0.1-0.1-0.1-0.3-0.2-0.4c-2.9-3.5-27.9-29.2-29.9-31.2c-1.9-1.7-11-9.1-18.5-2.4   c-6.8,6.2-4.9,10.5-2.5,14.3c0.1,0.1,0.1,0.2,0.2,0.3c1.7,1.3,8.4,4.4,11.2,5.8c3.4,1.6,4.5,2.1,5.3,2.7c4,2.8,3.2,7.8-2.8,19.2   c-1.7,3.2-8.7,9.7-11.7,12.4c-0.1,0.1-0.1,0.1-0.2,0.2l-15.2,12.2c-0.1,0.1-0.3,0.2-0.4,0.3c-0.5,0.4-4.3,3.3-8.2,6.3   c-39.6,30.7-47.6,36.2-50.7,36.8c-4.6,0.9-26.2-1.9-29.3-3.8c-0.2-0.1-1.1-0.5-1.9-0.9c-7.1-3.3-12.2-5.6-11.5-10.5   c0.8-5.8,8.5-6.1,14.2-5.9c2.2,0.1,15.7-0.6,18.5-1.3c0.2-0.4,0.4-1.3,0.5-1.9l0.1-0.5c0.1-0.5-0.3-2-1.7-3.4   c-2.5-2.5-6-6.3-8.2-8.7c-2-2.3-4.6-7.5-5.4-9.3c-3.2-6-4.9-13-5.2-20.9l0-0.3c-0.1-1.9,0.6-8.2,4-12.9c2.2-3,5.5-11.1,5.9-12.9   c0.5-2.1,1-10.1,0.5-12c-0.7-1.9-6.5-9.3-8-11c-0.5-0.5-2.9-3.5-10.5-12.8c-3.9-4.8-8.8-10.9-9.3-11.5c-0.4-0.4-1.7-2-5.6-6.9   c-4.7-5.9-13.4-16.7-15-18.4c-0.8-0.7-2.1-2.1-6.8-7.5c-3.5-4.1-10-11.6-11.7-13c-2.4-1.3-13.6-2.8-18-2.3   c-2.7,0.4-7.5,5.1-9.3,7.6c-1.3,1.9-1.4,3.7-0.4,5.3c0.5,0.8,0.9,1.4,1.3,2c0.7,1.2,1.5,2.4,1.8,2.8c1.6,0.8,2.7,2.3,3,4   c0.6,3-1.3,5.4-2.1,6.3c-0.2,0.2-0.4,0.4-0.7,0.6c-1.2,0.9-3.5,2.6-4.6,3.2c-2.4,1.3-9.8,5.4-10.9,6.2c-0.8,0.6-2.2,1.3-5.5,3   c-1.4,0.7-3.6,1.8-4.2,2.2c-1.7,1.2-13.7,9.1-15,9.9c-0.2,0.1-0.6,0.4-1.1,0.7c-2.6,1.6-7.9,5-11.9,6.7c-0.4,0.2-7.9,3.4-10.7,4.8   c-1.3,0.7-6.1,3.8-9.5,6c-3.8,5.2,1.1,12.1,2.2,13.6l95,81.8c0.1,0.1,0.2,0.2,0.3,0.3c0.9,0.9,2,1.8,3.2,2.7   c4.4,3.5,10.5,8.2,13.8,20.4c4.3,15.6,10.9,17,15.8,18.1l0.8,0.2c2.2,0.5,7.4-1.7,10.4-3c1.8-0.8,3.6-1.5,5.1-2   c7-2.1,14.5,2.1,17.1,4.6c2.1,1.8,13.8,8.1,16.8,8.7c1-0.1,2.2-0.5,3.4-0.9c1.3-0.4,2.8-0.9,4.6-1.3c0.9-0.2,2-0.4,3.2-0.7   c4.1-0.9,6.7-1.5,8.9-1.2c0.4,0.1,1.7,0.3,3.5,0.5c6.4,1,26.1,4,28.1,4.1C318,248.1,345.1,252.2,356.9,253.9z M265,209.6L265,209.6   L265,209.6z M247.6,151c0,0.1,0,0.1,0,0.2C247.6,151.2,247.6,151.1,247.6,151z M199.8,53.6c0.1,0.1,0.2,0.2,0.3,0.2   C200,53.8,199.9,53.7,199.8,53.6z M205.8,45.6C205.8,45.6,205.8,45.7,205.8,45.6C205.8,45.7,205.8,45.6,205.8,45.6z" fill="#ffc107"/>
</g>
</svg>