<?xml version="1.0" encoding="UTF-8"?>
<!-- Generator: Adobe Illustrator 19.2.1, SVG Export Plug-In . SVG Version: 6.00 Build 0)  -->
<svg version="1.1" id="Layer_1" xmlns="http://www.w3.org/2000/svg" xmlns:xlink="http://www.w3.org/1999/xlink" x="0px" y="0px" viewBox="0 0 478 286" style="enable-background:new 0 0 478 286;" xml:space="preserve">

<!-- <style type="text/css">
	.st0{fill:url(#SVGID_1_);}
</style> -->

<g id="AUSTRIA">

	<!-- <linearGradient id="SVGID_1_" gradientUnits="userSpaceOnUse" x1="26.882" y1="144.3479" x2="441.2351" y2="144.3479">
		<stop offset="0" style="stop-color:#00F4FF"/>
		<stop offset="1" style="stop-color:#1B5FE1"/>
	</linearGradient> -->

	<path class="st0" d="M250.8,263.6c-2.6,0-5.6-0.8-8.1-3.2c-1-1-2-2.2-3-3.5c-2.3-3-5-6.4-9.2-8.4c-6.6-3.2-17.4-11.3-27-18.5   c-6.1-4.6-11.8-8.9-14.9-10.7c-1.5-0.9-6.2-5.5-33.5-32.9c-18.6-18.7-44-44.2-47.6-46.9c-3.3-1.7-22.6-12.5-38.2-21.2   C30.7,96.5,30.3,95.9,29.4,94.3c-1.4-2.4-3.2-6-2.2-9.9c0.5-1.7,1.7-4.2,5.1-6c3.4-1.8,38.5-14.6,49.2-18.5c0.3-0.1,0.7-0.2,1-0.3   c0.8-0.1,75.9-10.6,89.1-13.5c13.6-3,71.3-17.4,75.9-19.2c0.1,0,0.2-0.1,0.3-0.1c1.4-0.5,13.8-4.9,20.5,1.8   c4.3,4.3,4.9,11.7,1.7,21.9c-2.1,6.9-5.6,14.1-8,17.7c-4.3,6.4-18.2,20.6-28.4,23.8c-4.7,1.5-20.8,5.8-30.7,6.8l-1.4,0.1   c-8.6,0.9-24.6,2.5-29.2,4.5c-5.4,2.2-14.1,8.2-14.8,15c-0.7,7.1,2.9,13.1,3.8,14.4l36.4,35.1c3.9,1.9,9.9,3.8,12.3,3   c6.1-2,9.8-3.9,12.1-7.9c0.7-1.3,2-4.6,3.4-8c5.5-14,11.1-26.9,18.4-31.7c17.9-11.7,135.4-50.2,140.1-51.5   c8.3-2.3,19.5-3.8,25.8,1.7c6.2,5.5,25.5,36.5,29.3,42.7c0.1,0.1,0.2,0.3,0.2,0.4c0.4,0.7,3.5,7.3,1.3,14   c-2.2,6.5-20.4,24.5-24.1,26.6c-3.5,2.1-106.3,69.4-160.1,104.8c-0.3,0.2-0.6,0.4-0.9,0.5C254.2,263.2,252.6,263.6,250.8,263.6z    M193.9,210.7c3.6,2.2,9.1,6.3,15.6,11.2c8.8,6.6,19.7,14.8,25.4,17.5c6.3,3,10,7.7,12.7,11.2c0.8,1,1.6,2,2.2,2.6   c0.4,0.4,1.2,0.3,1.6,0.2c27.8-18.2,157.1-103.1,160.1-104.7c3.1-2,18.1-17.5,19.5-21c0.8-2.3-0.2-5.3-0.7-6.2   c-8.6-13.8-23.4-36.8-27.3-40.2c-1.7-1.5-7.6-2-16.5,0.4c-4.7,1.3-121,39.6-137.2,50.2c-5.3,3.4-11.3,18.8-14.6,27   c-1.6,4.1-2.9,7.3-3.9,9.2c-4.2,7.6-11.3,10.4-17.6,12.5c-7.6,2.5-18.6-2.8-20.7-3.9c-0.4-0.2-0.8-0.5-1.2-0.8l-37.3-36   c-0.2-0.2-0.4-0.4-0.5-0.6c-0.3-0.4-7.1-9.6-5.9-21.6c1.2-12.1,13.7-20.3,20.9-23.3c5.6-2.3,18.3-3.7,32-5.2l1.4-0.1   c9-0.9,24.4-5.1,28.8-6.4c7-2.2,19.5-14.5,23.1-19.8c5.5-8.2,10.5-24.1,7.6-27c-1.3-1.3-6.3-0.8-9.9,0.5l0,0   C244.1,39,182,54.2,173.7,56c-13.1,2.9-82,12.5-89.3,13.5C67.2,75.8,39.6,85.9,37,87.3c0,0,0,0,0,0c0.1,0.2,0.2,0.6,0.5,1.1   c7.7,5,70.8,40.2,74.6,42.1l0,0c2.4,1.2,9.4,7.9,50,48.7C175.9,193,191.5,208.7,193.9,210.7z M193.7,210.6   C193.7,210.6,193.7,210.6,193.7,210.6C193.7,210.6,193.7,210.6,193.7,210.6z M107.5,139.4c0.2,0.1,0.3,0.2,0.4,0.2   C107.8,139.5,107.6,139.5,107.5,139.4z M247.4,27.1c-0.1,0-0.1,0-0.1,0.1C247.3,27.2,247.4,27.2,247.4,27.1z" fill="#ffc107" />
</g>
</svg>