<svg version="1.1" id="Layer_1" xmlns="http://www.w3.org/2000/svg" xmlns:xlink="http://www.w3.org/1999/xlink" x="0px" y="0px" viewBox="0 0 478 286" style="enable-background:new 0 0 478 286;" xml:space="preserve">

  <path id="ARGENTINA" d="M475.8,58.7l-0.6-3.6
	c0-0.1,0-0.1,0-0.2l-0.7-3c0-0.1-0.1-0.2-0.1-0.5l-1.3-2.8c-0.1-0.1-0.1-0.3-0.2-0.5l-2.1-2.7c-0.1-0.1-0.1-0.2-0.2-0.2l-1.2-1.2
	l-0.2-0.3c-0.1-0.1-0.1-0.2-0.2-0.2l-2.4-2.2c-0.1-0.1-0.3-0.2-0.5-0.3l-3.7-2.1c-0.1-0.1-0.2-0.1-0.3-0.1l-3.1-1.2
	c-0.2-0.1-0.5-0.1-0.8-0.1l0,0l-130.3,1.3l-84.3,0.7l-42.2,1.2h-0.1l-13.9,1.2c-0.1,0-0.1,0-0.2,0L175.3,44h-0.1l-9.5,2.4
	c-0.1,0-0.1,0-0.2,0.1l-12.8,4.5c-0.1,0-0.2,0.1-0.3,0.1L141.5,57l-8.7,4.9c0,0-0.1,0-0.1,0.1l-8.2,5.2c-0.1,0-0.1,0.1-0.2,0.1
	l-4.3,3.4l-0.1,0.1l-1.7,1.5c-0.3,0.3-0.7,0.8-0.7,1.4l-0.3,2.2V76l-0.6,4.9c0,0.3,0,0.7,0.1,1l-0.3,4.4l-0.9,11.3l-0.9,11.5
	l-1.3,7.7l-1,2.3l-1,2.2l-1.6,2.1l-2.1,2l-1.7,1.5l-2.6,0.9l-2.6,0.3l-2.7-0.5l-2.1-0.8l-2-1.2l-0.1-0.2l-0.9-1.4l-5.2-10.9l-3-6.2
	L81,99.4c0-0.1,0-0.1-0.1-0.2l-3.5-6.5l-3.7-8v-0.1l-3.6-6.7l-2.8-5.6c0-0.1-0.1-0.2-0.1-0.2l-3-4.3c0,0,0-0.1-0.1-0.1l-3.7-4.9
	c0,0,0,0,0-0.1L55.7,57l-0.1-0.1l-3.7-3.7c-0.1-0.1-0.2-0.2-0.3-0.3h-0.1l-1.3-1.4c-0.1-0.1-0.2-0.2-0.3-0.3L44,46.9
	c0,0-0.1,0-0.1-0.1l-3.6-2.2c-0.1-0.1-0.2-0.1-0.3-0.2l-3.6-1.5l-2.9-1.2c-0.2-0.1-0.5-0.1-0.7-0.1l-3.1-0.2h-0.1h-3
	c-0.1,0-0.2,0-0.5,0l-3,0.6c-0.1,0-0.2,0-0.2,0.1l-3,0.9c-0.2,0.1-0.3,0.1-0.6,0.2L16,45.3c-0.1,0.1-0.2,0.1-0.2,0.2l-3.4,3
	l-0.1,0.1l-2.4,2.7c-0.1,0.1-0.1,0.1-0.2,0.2l-2.2,3.1c0,0.1-0.1,0.1-0.1,0.2l-2.1,3.7c0,0.1-0.1,0.2-0.1,0.3l-1.5,4.2
	c0,0.1-0.1,0.3-0.1,0.5l-0.6,4.2c0,0.1,0,0.2,0,0.3L3.1,73c0,0.1,0,0.2,0,0.3L4,78.5c0,0.1,0.1,0.3,0.1,0.5l1.7,4.2v0.1l1.9,3.9
	c0,0.1,0.1,0.2,0.1,0.2l4.6,7.1l10,14.5l6.4,8.8l5.7,7.7l0,0l5.8,7.4l13.8,19.2l16.5,23.4l0,0l14,18.7l7.3,10.4l3.9,5.7l8,11v0.2
	l-0.6,1.9c0,0.1,0,0.1-0.1,0.2l-4.2,19.7c0,0.1,0,0.2,0,0.3l-0.2,5.2c0,0.1,0,0.2,0,0.3l0.3,3.6c0,0.1,0,0.1,0,0.2l0.7,3.6
	c0,0.2,0.1,0.5,0.3,0.7l2.1,3.4c0.1,0.2,0.3,0.5,0.6,0.7l0.8,0.6l0.2,0.5c0.1,0.2,0.3,0.5,0.6,0.7l3.4,2.4c0.1,0.1,0.2,0.1,0.2,0.2
	l3.9,2.1c0.3,0.1,0.7,0.2,1,0.2h3.7c0.1,0,0.3,0,0.5,0l3.9-0.7c0.1,0,0.2,0,0.3-0.1l3.1-1.2c0.2-0.1,0.3-0.1,0.5-0.2l3.4-2.2
	c0.1-0.1,0.2-0.2,0.3-0.3l3.4-3.6c0.1-0.1,0.2-0.2,0.2-0.3l2.4-3.7l5.5-7.9l3.7-5.5c0-0.1,0.1-0.1,0.1-0.2l4.2-7.7
	c0.1-0.1,0.1-0.2,0.1-0.3l1.7-4.9v-0.1l1.5-5.6l1.3-4.9v-0.1l0.9-4.6v-0.1l0.5-3c0-0.1,0.1-0.3,0.1-0.5l0.6-5.9l1.2-7.8l0.9-7.8
	l1.2-11.1l1.3-13.1l1.9-17.2l1.3-8.2l2.1-7.3l2.7-5.2l3.9-6.5l3.8-4.5l4.3-3.4l6-3.9l5.5-2.8l5.8-1.6l5.3-0.7h5.3l7.1,0.9l6.3,2.1
	l7.7,3.6l5.7,3.5l5.7,3.4l5.5,3.4l3.9,2.4c0,0,0.1,0,0.1,0.1l3.9,2.1c0.1,0,0.2,0.1,0.3,0.1l4.9,1.7c0,0,0.1,0,0.2,0l4.3,1.2
	c0.1,0,0.1,0,0.2,0l5.2,0.9c0.1,0,0.2,0,0.3,0l3.7,0.2l3,0.2h0.1h0.1l2.7-0.2l5.5,0.2c0,0,0,0,0.1,0h2.9l2.3,0.3l2.2,0.9l0.2,0.1
	l0.1,0.2l1,1.9l0.5,1.3l0.3,2.7v3.9c0,0.3,0.1,0.6,0.2,0.9l-0.2,62.4c0,0.1,0,0.1,0,0.2l0.3,4.9v0.1l0.9,6.2c0,0.1,0,0.2,0.1,0.3
	l1.7,5.8c0,0.1,0.1,0.2,0.1,0.3l2.7,5.2c0.1,0.1,0.1,0.2,0.2,0.3l4.2,5.5c0,0.1,0.1,0.1,0.2,0.2l5.5,5.6c0.1,0.1,0.1,0.1,0.2,0.2
	l0.1,0.1l1.4,1.4c0.1,0.1,0.1,0.1,0.2,0.2l6.6,5.1c0.1,0.1,0.3,0.2,0.6,0.3l6.7,2.8c0.1,0.1,0.3,0.1,0.5,0.1c2,0.3,4.4,0.8,5.1,0.9
	c0.6,0.2,1.6,0.5,6.4,0.7h0.1h0.1l4.6-0.2c0.1,0,0.2,0,0.5,0l4.2-0.9c0.2,0,0.3-0.1,0.6-0.2l2.8-1.5c0.2-0.1,0.5-0.2,0.6-0.5
	l1.9-2.1c0.1-0.1,0.2-0.2,0.3-0.5l1.5-2.7c0.1-0.1,0.1-0.2,0.2-0.5l0.9-2.8c0-0.1,0.1-0.2,0.1-0.3l0.6-3.7v-0.1l0.9-8.6v-0.1
	l0.6-9.2l1.2-15.2c0,0,0,0,0-0.1l0.7-17.3l1.2-20.4l0.7-12.3l1.3-8.7l2.6-7.2l3-6.6l3.1-6.7l4.8-7.3l7.1-9.2l6.2-5.6l6.2-4.8
	l7.8-4.3l9.2-3.5l7.9-2.6l6.4-1.3l28.9-4.6c0.1,0,0.1,0,0.2,0l6.2-1.7c0.2,0,0.3-0.1,0.5-0.2l5.1-2.8c0.1-0.1,0.3-0.2,0.5-0.3
	l2.7-2.4c0.1-0.1,0.2-0.3,0.3-0.5l2.2-3.6c0.1-0.1,0.1-0.2,0.2-0.5l1.2-3c0.1-0.2,0.1-0.3,0.1-0.6l0.3-4.3
	C475.8,59.1,475.8,59,475.8,58.7z M5.3,70.8l-0.1-2.4l0.2-1.9l-0.2,1.9L5.3,70.8z M101.5,244.2l2.1-9.9L101.5,244.2l-0.2,5.2
	L101.5,244.2z M102.6,256.6l-0.7-3.6l-0.3-3.2l0.3,3.2L102.6,256.6l1.3,2.1L102.6,256.6z M349.6,48.6l-101.7,0.6l-10.7,0.2l10.7-0.2
	L349.6,48.6z M175.5,46.5l11.6-2.2l13.9-1.2l42.2-1.2L201,43.2l-13.9,1.2L175.5,46.5l-1.6,0.5L175.5,46.5z M171.7,55.5
	c0,0,0.5-0.1,1-0.3C172.2,55.4,171.7,55.5,171.7,55.5L171.7,55.5L171.7,55.5z M133.7,64.2l8.6-4.9L133.7,64.2l-8.2,5.2L133.7,64.2z
	 M120.2,125.1l1.2-3l0.7-3.7l-0.7,3.7L120.2,125.1l-0.7,1.3L120.2,125.1z M119.1,76.5l0.2-1.2L119.1,76.5l-0.6,4.9L119.1,76.5z
	 M116.4,109.6l0.9-11.6l0.5-5.9l-0.5,5.9L116.4,109.6l-1.3,8L116.4,109.6z M111.7,134.5l2.7-1.9L111.7,134.5L109,136l-1.9,0.6
	l1.9-0.6L111.7,134.5z M103.5,130.1l3.1-1.2l2.1-1.9l-2.1,1.9L103.5,130.1l-3.1,0.3L103.5,130.1z M94.7,129.1l2.4,0.9L94.7,129.1
	l-1.7-1L94.7,129.1z M91.7,127l0.5,0.6L91.7,127l-0.7-1L91.7,127z M89.8,133.4l1.7,1.2l2.1,1.5l2.7,0.7l-2.7-0.7l-2.1-1.5
	L89.8,133.4z M88.1,131.6l0.6,0.3L88.1,131.6l-3.4-5.8l-1.5-2.8l1.5,2.8L88.1,131.6z M82.3,108.1l3,6.2l1.7,3.6l-1.7-3.6L82.3,108.1
	l-3.4-7.7L82.3,108.1z M68,78.9l3.6,6.8l1.2,2.6l-1.2-2.6L68,78.9l-2.8-5.6L68,78.9z M59.7,75.9l1.5,2.6L59.7,75.9l-2.1-3.4
	L59.7,75.9z M50,54.6l0.2,0.2l3.6,3.7l-3.6-3.7L50,54.6l-0.7-0.8L50,54.6z M26.7,52C26.5,52,26.5,52,26.7,52
	C26.5,52,26.5,52,26.7,52C26.5,52,26.5,52,26.7,52z M23.5,44.5l3-0.6L23.5,44.5l-2.3,0.7L23.5,44.5z M21,54.8l2.8-1.9L21,54.8
	l-2.1,1.6L21,54.8z M8,82.3l-0.3-0.9L8,82.3l1.9,3.9L8,82.3z M14,50.5l3.4-3L14,50.5l-2.4,2.7L14,50.5z M12.2,67.2l-0.3,3.1
	L12.2,67.2l1.3-3.4l2.4-4.2l-2.4,4.1L12.2,67.2z M21,91.1l-7.5-10.7L21,91.1l5.6,7.7L21,91.1z M80.4,171.8L66,153.1L80.4,171.8
	l12,16.1L80.4,171.8z M109.5,257.7l-0.8-1.3l-0.9-2.2v-5.1l3.7-15.8l-3.7,15.8v5.1l0.9,2.2L109.5,257.7l0.7,0.6L109.5,257.7z
	 M121.3,265.5l-2,0.3L121.3,265.5l3.1-1.2L121.3,265.5z M126,252.7C125.9,252.7,125.9,252.7,126,252.7
	C125.9,252.7,125.9,252.7,126,252.7c0.1-0.1,0.3-0.5,0.7-0.9C126.2,252.2,126,252.6,126,252.7z M131.8,243.9l-2.8,4.3
	c0,0-0.3,0.5-0.7,1c0.3-0.6,0.7-1,0.7-1L131.8,243.9l1.9-2.9L131.8,243.9z M151.6,218.3l-1.3,4.9l-1.5,5.6l-0.8,2.4l0.8-2.4l1.5-5.6
	L151.6,218.3l0.9-4.6L151.6,218.3z M151.1,152.9L151,154L151.1,152.9l1.7-13.3L151.1,152.9z M153.5,204.3l-0.6,6L153.5,204.3
	l1.2-7.9L153.5,204.3z M158.1,123.7l-3,7.1L158.1,123.7l2.4-4.1L158.1,123.7z M163.5,131.2l-1.2,3.8L163.5,131.2l2.8-5.5
	L163.5,131.2z M174.5,114.1l-2.7,3.1L174.5,114.1l4.5-3.6L174.5,114.1z M196.1,94.5l7.7-0.9L196.1,94.5z M216,101.9l-7.4-1
	L216,101.9l6.6,2.2L216,101.9z M252.8,114.4l-6.4-3.6l-3.5-2.3l3.5,2.3L252.8,114.4l4.3,2.1L252.8,114.4z M260.1,124.3l-1.7-0.6
	L260.1,124.3l2.2,0.6L260.1,124.3z M287.8,126.7h-3l-5.6-0.2l-2.8,0.2l-3-0.2l-3.7-0.2l-4.4-0.8l4.4,0.8l3.7,0.2l3,0.2l2.8-0.2
	l5.6,0.2H287.8l2.6,0.3L287.8,126.7z M291.8,121.2l-3-1.3L291.8,121.2l3.1,2.1L291.8,121.2z M296.9,140.4h-0.2H296.9z M302.3,226
	l-2.7-5.2L302.3,226l4.2,5.5L302.3,226z M303.4,135.5l0.3,1.6l0.1,2.4l-0.1-2.4L303.4,135.5z M307.2,222l-1.7-4.6l-0.7-3.7l0.7,3.7
	L307.2,222l3.7,6.6L307.2,222z M313.6,238.8l-1.5-1.5L313.6,238.8l6.6,5.1L313.6,238.8z M345,240l-2.4,1.5L345,240l0.6-0.7L345,240z
	 M354.7,234.5l-0.2,1.9L354.7,234.5l0.1-0.8L354.7,234.5z M354.8,136.4l-1.9,9.1l-0.9,8.8l-0.9,11.6l0.9-11.6l0.9-8.8L354.8,136.4
	l3.1-9.1L354.8,136.4z M359.2,163.8l-0.6,10.4L359.2,163.8l0.3-6.4L359.2,163.8z M363.8,134.9l-2.7,7.5l-0.7,4.5l0.7-4.5
	L363.8,134.9l3-6.7L363.8,134.9z M367.6,109l-1.9,3.4L367.6,109l3.8-4.6L367.6,109z M382.2,104.3l-7.3,9.4L382.2,104.3l3.4-3
	L382.2,104.3z M453.9,67.4L424,72.3c-0.1,0-0.2,0-0.2,0.1l-5.1,0.7c-0.1,0-0.2,0-0.2,0l-6.4,1.7c-0.1,0-0.1,0-0.2,0.1l-7.3,2.8h-0.1
	l-8.5,3.7c-0.1,0-0.2,0.1-0.3,0.2l-11,7.3l-0.1,0.1l-9.7,7.7c-0.1,0.1-0.2,0.2-0.3,0.3l-8.5,10.3c-0.1,0.1-0.1,0.2-0.2,0.3l-5.2,9.2
	l-0.1,0.1l-4.3,9.3c0,0.1-0.1,0.1-0.1,0.2l-3.1,9.1c0,0.1-0.1,0.2-0.1,0.3l-1.9,9.1c0,0.1,0,0.1,0,0.2l-0.9,8.8c0,0,0,0,0,0.1
	l-0.9,11.6c0,0,0,0,0,0.1l-0.9,17.1l-0.9,17.3l-0.7,14.3l-1.2,18.2v0.1v0.1l-0.3,3l-0.6,1.9l-0.6,0.8l-1.7,1l-2,0.5l-4.2-0.1
	l-6.5-1.4l-6.2-2.7l-5.7-3.8l-4.4-4.5l-3.5-6.2l-1.5-4.3l-0.7-3.6l-0.7-4.3l-0.2-67c0-0.1,0-0.2,0-0.2l-0.1-4.6c0-0.1,0-0.2,0-0.3
	l-0.6-3l0,0l-0.6-2.7c0-0.2-0.1-0.5-0.3-0.7c-1.6-2.7-2-3-2.2-3.2c-0.1-0.1-0.9-1.2-1.5-1.9c-0.1-0.1-0.2-0.3-0.5-0.5l-0.6-0.5
	c-0.3-0.5-0.7-0.8-0.7-0.8c-0.1-0.1-0.2-0.3-0.5-0.5l-2.2-1.7l-0.1-0.1l-3.1-2.1c-0.1-0.1-0.2-0.1-0.3-0.2l-3-1.3
	c-0.2-0.1-0.3-0.1-0.6-0.1l-3.6-0.6h-0.1l-3.9-0.3c-0.1,0-0.1,0-0.2,0s-0.1,0-0.2,0l-4.4,0.3h-0.1h-0.1l-3.8,0.2l-3.2-0.2l-3.4-0.2
	l-3.9-1l-4.1-1.4l-4.2-2l-6.3-3.5l-8.7-5.8l-0.1-0.1l-6.4-3.6l-3.9-2.2c-0.1,0-0.1-0.1-0.2-0.1l-6-2.7c-0.1,0-0.1-0.1-0.2-0.1
	l-5.8-1.9c-0.1,0-0.2-0.1-0.3-0.1l-5.5-0.9c-0.1,0-0.2,0-0.3,0l-6.2-0.2c0,0,0,0-0.1,0c-0.1,0-0.2,0-0.2,0l-7.7,0.9
	c-0.1,0-0.2,0-0.3,0.1l-8.2,2.2c-0.1,0-0.2,0.1-0.3,0.1l-8,3.6c-0.1,0.1-0.3,0.1-0.5,0.2l-9.5,7.1c-0.1,0.1-0.2,0.2-0.3,0.3
	l-7.3,8.2c-0.1,0.1-0.2,0.2-0.2,0.3l-4.9,8c-0.1,0.1-0.1,0.2-0.1,0.3l-3,7.1c0,0.1-0.1,0.2-0.1,0.3l-2.2,8.6c0,0.1,0,0.2,0,0.3
	l-1.7,13.3v0.1l-1.3,15.6l-3.7,39.5l-0.9,6.6l-1.3,4.6l-1.9,5.8l-2,4.1l-4.3,7.9l-3.7,5.7l-2.8,4.3c-1,1.7-2.4,3.7-2.8,4.2
	c-0.6,0.6-3.2,3.2-3.7,3.7l-2,1.5l-2.8,0.9l-2.2-0.1l-2.1-0.8l-0.1-0.1l-0.5-0.8l-0.7-1.6v-4.3l3.7-15.4l2.4-7.2
	c0-0.1,0.1-0.2,0.1-0.3l0.3-2.2c0-0.1,0-0.3,0-0.5c-0.1-1.9-0.2-2.3-0.3-2.6c-0.1-0.1-0.2-0.7-0.3-1.2c-0.1-0.2-0.2-0.6-0.3-0.8
	l-1-1.4l-1.4-2.3l0,0l-18.8-28.7c0,0,0-0.1-0.1-0.1l-12-16.1l-14.4-18.8l-12.9-18l-15.6-20.4L28.5,97.5l-5.7-7.7l-7.4-10.6l-0.7-1.5
	l-0.5-1.6l-0.1-2.6v-3.1l0.3-2.8l1.2-2.9l2.2-3.8l2.2-2.4l2.4-1.9l2.6-1.7c0.6-0.2,1.2-0.6,1.5-0.6h0.1c0.8,0,2.7-0.2,3.4-0.3h2.9
	l3,0.7l2.4,1.2l2.8,1.5l2.8,2.2l3.5,3.5l2,2.1l2.4,3.2l1.9,2.6l2,2.9l2,3.4l2.9,5l3.7,7.7l3.9,7.9l4.5,9.5l4.1,8.9v0.1l4.2,7.9
	l1.5,2.8c0,0,0,0,0,0.1l3.4,5.8c0.2,0.3,0.5,0.6,0.7,0.8l0.7,0.5l0.2,0.5c0.2,0.3,0.5,0.6,0.7,0.8l1.6,1l2,1.5
	c0.2,0.1,0.5,0.2,0.7,0.3l2.7,0.7h0.1l3.6,0.7c0.1,0,0.3,0,0.5,0h2.4c0.1,0,0.2,0,0.3,0l3.6-0.6c0.1,0,0.2,0,0.3-0.1l3.1-0.9
	c0.1,0,0.3-0.1,0.5-0.2l2.8-1.5c0.1,0,0.2-0.1,0.2-0.1l2.7-1.9c0.1,0,0.1-0.1,0.2-0.2l2.4-2.2c0.1-0.1,0.2-0.2,0.3-0.3l1.9-2.7
	c0-0.1,0.1-0.1,0.1-0.2l1.5-2.7c0.1-0.1,0.1-0.2,0.1-0.3l1.2-3c0-0.1,0.1-0.2,0.1-0.3l0.7-3.7c0,0,0,0,0-0.1l0.9-5.5l0.7-4.5
	c0-0.1,0-0.1,0-0.2l0.3-5.5l0.3-5.7c0,0,0,0,0-0.1l0.6-13.9c0.1-0.3,0.2-0.7,0.2-1v-1.2l0.1-0.5l21.4-12.8c11.6-5.5,14.3-6.8,15-7.4
	c-0.1,0.1-0.2,0.2-0.2,0.2c0.7-0.3,4.9-1.9,8.7-3.1c3-0.8,6.6-1.9,7.4-2c0.3,0,1.6-0.1,12.1-2.1l12.8-1.3l21.8-0.6l21.4-0.3
	l101.7-0.6l96.5-0.7h10.8l3.4,0.7l1.3,0.7l0.5,0.3l0.3,0.5l0.9,1.7l0.5,1.5l0.3,2v1.5l-0.2,1.6l-0.7,1.6l-1,1.5l-1.5,1.5l-2,1.2
	L453.9,67.4z M462.1,75.2L459,76L462.1,75.2l1.7-1L462.1,75.2z M463.7,65.1l-0.9,0.9L463.7,65.1l0.7-0.9L463.7,65.1z M464.7,43.2
	l-2.6-1.4L464.7,43.2l2.4,2.2L464.7,43.2z M472.9,55.5l-0.3-1.3L472.9,55.5l0.6,3.6L472.9,55.5z" fill="#ffc107" />
</svg>
