<?xml version="1.0" encoding="UTF-8"?>
<!-- Generator: Adobe Illustrator 22.0.1, SVG Export Plug-In . SVG Version: 6.00 Build 0)  -->
<svg version="1.1" id="Layer_1" xmlns="http://www.w3.org/2000/svg" xmlns:xlink="http://www.w3.org/1999/xlink" x="0px" y="0px" viewBox="0 0 478 286" style="enable-background:new 0 0 478 286;" xml:space="preserve">

<!-- <style type="text/css">
	.st0{fill:url(#SVGID_1_);}
</style> -->

<g id="VALENCIA">
	<g>
		<g>
			
			<!-- <linearGradient id="SVGID_1_" gradientUnits="userSpaceOnUse" x1="20.1374" y1="145.1569" x2="458.1" y2="145.1569" gradientTransform="matrix(1 0 0 -1 0 286)">
				<stop offset="0" style="stop-color:#00F4FF"/>
				<stop offset="1" style="stop-color:#1B5FE1"/>
			</linearGradient> -->

			<path class="st0" d="M40.1,228.7c-7.6,0-14.1-3.2-17.5-8.5c-3.3-5.3-3.3-12,0.1-19c4.9-10.1,11.2-22,19.8-32.6     c10.7-13.2,24.8-22.9,45.9-31.4c15.9-6.4,33.5-7.6,53.7-3.7c16.7,3.3,31.9,11.2,46.4,24.4l0.1,0.1c2.6,2.4,5.1,4.6,7.7,6.5     c1.3,0.9,3.5,1.9,7.2,0.1c11.6-5.7,21.7-10.9,31.1-15.8c8.3-4.3,17-8,25.4-11.6c4-1.7,8.1-3.5,12.2-5.3     c10.5-4.7,24.3-11,37.9-17.9c3.1-1.6,7.8-5.5,4.2-14.1c-0.4-1-1.8-4.2-9.3-4.3c-3.2,0-6.5-0.2-9.6-0.3     c-5.5-0.2-10.7-0.5-15.9-0.1c-3.6,0.3-6.7,1.6-10.5,4.4c-5.2,3.9-9.6,8.7-14.3,13.8c-2.4,2.7-5,5.5-7.6,8.1     c-0.7,0.7-1.4,1.3-2.1,1.9c-0.6,0.5-1.3,1.1-1.7,1.5c-6.4,6.8-14.9,7-21.6,7.2h-0.4c-15,0.3-27.6,0.3-40.5-0.8     c-7.7-0.6-14.9-5-19.1-11.6c-4.5-6.9-5.2-15.4-2.2-23.7c2.6-7.1,7.4-12.2,14.4-15.3c18.6-8.2,36.7-16.9,50.3-23.6     c5.3-2.6,11.1-3.8,18.4-3.9h4.9c20-0.2,40.7-0.4,61.1,0.1c7,0.2,14.2,0.2,21.2,0.2c8,0,16.3,0,24.5,0.2h0.8     c5.1,0.1,10.9,0.3,16.5,4.3c9.8,7,12.1,19.1,5.6,28.9c-4.4,6.6-8.9,13.3-13.3,19.9c-10.1,15.2-20.6,31-31.1,46.4     c-6.4,9.4-5.1,17.3,4.1,25.5c0.3,0.2,0.6,0.5,1.4,0.5c6-0.1,12,0.1,17.8,0.4c3.3,0.2,6.8,0.3,10.1,0.4c4.7,0.1,9.4-0.2,14.3-0.5     c2-0.1,4-0.2,6-0.3c0.9,0,1.7-0.3,3.3-3.1c1.4-2.6,2.1-5,2-7.6c-0.3-13.6-1.5-28.4-3.8-45.1c-1.6-12.1,1.4-21.1,9.9-29.1     c8.9-8.4,17.6-17.9,26.6-29.1c6.5-8.1,13.3-8.4,17.8-7.3c7.2,1.8,12.4,6.5,14.6,13.3c0.2,0.6,0.4,1.1,0.6,1.7l0.3,0.9     c0.2,0.6,0.3,1.2,0.3,1.8c0,0.6,0,1.1-0.2,1.7c-3,9.8-5.4,20-7.7,29.9c-0.4,1.8-0.8,3.5-1.2,5.3c-5.1,21.7-9.9,43.1-14.9,65     c-1.1,4.7-2.1,9.4-3.1,14.1c-0.8,3.7-1.6,7.3-2.4,11c-2.4,10.9-9.3,18.4-21,22.9c-4.3,1.7-8.9,2.5-14.1,2.5l0,0     c-9.1,0-18.2,0-27.3-0.1c-21.7-0.1-44.1-0.1-66.1,0.1c-47.4,0.5-95.6,0.4-142.1,0.4c-38.5,0-78.3-0.1-117.4,0.2     C40.2,228.7,40.2,228.7,40.1,228.7z M120.1,141.3c-10.1,0-19.3,1.7-27.9,5.2c-19.4,7.8-32.3,16.6-41.9,28.4     c-8,9.9-13.9,21.1-18.6,30.7c-1.3,2.6-2.4,6.4-0.6,9.3c1.5,2.4,5,3.8,9.1,3.8c39.2-0.3,79-0.2,117.5-0.2c46.6,0,94.7,0.1,142-0.4     c22.1-0.2,44.6-0.2,66.3-0.1c9.1,0,18.2,0.1,27.3,0.1l0,0c4,0,7.3-0.6,10.5-1.8c8.5-3.3,13.2-8.3,14.9-15.8     c0.8-3.6,1.6-7.3,2.4-10.9c1-4.6,2-9.4,3.1-14.2c5-21.9,9.9-43.3,14.9-65c0.4-1.8,0.8-3.5,1.2-5.3c2.2-9.6,4.5-19.6,7.5-29.3     c-0.2-0.5-0.3-0.9-0.5-1.4c-1.1-3.5-3.6-5.7-7.4-6.6c-1.1-0.3-3.7-0.9-7.6,3.9C423,83.2,414,93,404.8,101.8     c-6.2,5.8-8.1,11.6-6.9,20.5c2.3,17.1,3.6,32.2,3.9,46.2c0.1,4.4-1,8.5-3.3,12.6c-1.2,2.2-4.4,7.9-11.6,8.3     c-1.9,0.1-3.9,0.2-5.8,0.3c-4.9,0.3-10,0.6-15.1,0.5c-3.5-0.1-7-0.2-10.3-0.4c-5.6-0.3-11.4-0.5-17.1-0.4c-3.2,0.1-6-1-8.3-3     c-16.5-14.7-12.2-29.1-5.7-38.6c10.5-15.3,20.9-31,31.1-46.2c4.4-6.7,8.9-13.3,13.3-20c3.5-5.3,2.3-11.4-3.1-15.2     c-3.1-2.2-6.7-2.3-10.9-2.4h-0.9c-8-0.2-16.3-0.2-24.2-0.2c-7,0-14.3,0-21.4-0.2c-20.2-0.4-40.8-0.3-60.8-0.1h-4.9     c-5.9,0-10.2,0.9-14.1,2.8C214.9,73,196.7,81.8,178,90c-4.5,2-7.4,5-9,9.6c-1.9,5.3-1.5,10.6,1.2,14.8c2.6,4,6.9,6.6,11.5,7     c12.4,1,24.7,1,39.4,0.7h0.4c5.9-0.1,11-0.2,14.6-4c0.9-0.9,1.8-1.7,2.6-2.3c0.6-0.5,1.1-0.9,1.5-1.3c2.5-2.5,4.9-5.1,7.3-7.7     c4.8-5.2,9.7-10.6,15.7-15.1c3.6-2.7,8.7-5.9,15.8-6.4c5.8-0.4,11.5-0.2,17.1,0.1c3,0.1,6.2,0.3,9.2,0.3     c11.7,0.1,16.5,5.7,18.5,10.4c4.7,11.2,1.2,21.7-8.9,26.9c-13.8,7.1-27.8,13.4-38.4,18.2c-4.1,1.8-8.3,3.6-12.3,5.3     c-8.2,3.5-16.7,7.1-24.7,11.3c-9.4,4.9-19.6,10.1-31.2,15.8c-6.1,3-12.2,2.7-17.3-0.8c-3.2-2.2-6-4.8-8.8-7.3l-0.1-0.1     c-13.1-11.9-26.6-19.1-41.5-22C133.2,141.9,126.5,141.3,120.1,141.3z" fill="#ffc107"/>
		</g>
	</g>
</g>
</svg>