<svg width="512" height="340" viewBox="0 0 512 340" fill="none" xmlns="http://www.w3.org/2000/svg">
<path d="M512 0H0V340H512V0Z" fill="#F0F0F0"/>
<path d="M512 0H0V113.333H512V0Z" fill="#338AF3"/>
<path d="M512 226.667H0V340H512V226.667Z" fill="#338AF3"/>
<path d="M296.809 170L280.133 177.814L289.013 193.9L270.906 190.449L268.612 208.669L256 195.268L243.388 208.669L241.094 190.449L222.987 193.899L231.866 177.812L215.191 170L231.867 162.186L222.987 146.101L241.093 149.551L243.388 131.331L256 144.732L268.612 131.331L270.906 149.551L289.013 146.101L280.134 162.187L296.809 170Z" fill="#FFDA44"/>
</svg>
