<svg width="512" height="341" viewBox="0 0 512 341" fill="none" xmlns="http://www.w3.org/2000/svg">
<path d="M512 0.333008H0V340.33H512V0.333008Z" fill="#0052B4"/>
<path d="M223.397 170.326C223.67 170.023 223.94 169.719 224.21 169.414C223.94 169.72 223.664 170.021 223.39 170.326H223.397Z" fill="#F0F0F0"/>
<path d="M189.217 212.088L200.175 234.911L224.922 229.216L213.839 251.979L233.739 267.698L208.963 273.261L209.032 298.56L189.217 282.732L169.403 298.56L169.472 273.261L144.696 267.698L164.596 251.979L153.513 229.216L178.259 234.911L189.217 212.088Z" fill="#F0F0F0"/>
<path d="M387.076 240.441L392.303 251.327L404.106 248.609L398.82 259.467L408.312 266.965L396.494 269.618L396.526 281.684L387.076 274.136L377.626 281.684L377.658 269.618L365.841 266.965L375.332 259.467L370.047 248.609L381.85 251.327L387.076 240.441Z" fill="#F0F0F0"/>
<path d="M338.453 124.957L343.68 135.844L355.483 133.126L350.197 143.984L359.688 151.482L347.871 154.135L347.903 166.202L338.453 158.652L329.002 166.202L329.035 154.135L317.217 151.482L326.708 143.984L321.424 133.126L333.226 135.844L338.453 124.957Z" fill="#F0F0F0"/>
<path d="M387.076 58.9669L392.303 69.854L404.106 67.1347L398.82 77.9939L408.311 85.4913L396.494 88.1449L396.526 100.211L387.076 92.6611L377.626 100.211L377.658 88.1449L365.841 85.4913L375.332 77.9939L370.047 67.1347L381.85 69.854L387.076 58.9669Z" fill="#F0F0F0"/>
<path d="M429.547 108.46L434.774 119.346L446.576 116.629L441.292 127.486L450.783 134.983L438.965 137.637L438.998 149.703L429.547 142.155L420.097 149.703L420.129 137.637L408.312 134.983L417.803 127.486L412.517 116.629L424.32 119.346L429.547 108.46Z" fill="#F0F0F0"/>
<path d="M399.179 166.202L403.289 178.805H416.593L405.83 186.594L409.942 199.196L399.179 191.408L388.414 199.196L392.526 186.594L381.763 178.805H395.067L399.179 166.202Z" fill="#F0F0F0"/>
<path d="M256 0.333008V30.7661L210.833 55.7665H256V114.892H196.897L256 147.599V170.326H229.32L155.826 129.66V170.326H100.174V121.944L12.744 170.326H0V139.893L45.167 114.892H0V55.7665H59.103L0 23.0495V0.333008H26.68L100.174 40.9997V0.333008H155.826V48.7153L243.256 0.333008H256Z" fill="#F0F0F0"/>
<path d="M144 0.330002H112V69.3898H0V101.264H112V170.326H144V101.264H256V69.3898H144V0.330002Z" fill="#D80027"/>
<path d="M155.826 114.892L256 170.326V154.651L184.153 114.892H155.826Z" fill="#0052B4"/>
<path d="M155.826 114.892L256 170.326V154.651L184.153 114.892H155.826Z" fill="#F0F0F0"/>
<path d="M155.826 114.892L256 170.326V154.651L184.153 114.892H155.826Z" fill="#D80027"/>
<path d="M71.846 114.892L0 154.651V170.326L100.174 114.892H71.846Z" fill="#D80027"/>
<path d="M100.174 55.7635L0 0.330002V16.0052L71.847 55.7635H100.174Z" fill="#0052B4"/>
<path d="M100.174 55.7635L0 0.330002V16.0052L71.847 55.7635H100.174Z" fill="#F0F0F0"/>
<path d="M100.174 55.7635L0 0.330002V16.0052L71.847 55.7635H100.174Z" fill="#D80027"/>
<path d="M184.154 55.7635L256 16.0052V0.330002L155.826 55.7635H184.154Z" fill="#D80027"/>
</svg>
