<svg width="512" height="341" viewBox="0 0 512 341" fill="none" xmlns="http://www.w3.org/2000/svg">
<path d="M512 0.330994H0V340.331H512V0.330994Z" fill="#F0F0F0"/>
<path d="M512 42.8269H0V85.3228H512V42.8269Z" fill="#D80027"/>
<path d="M512 127.83H0V170.326H512V127.83Z" fill="#D80027"/>
<path d="M512 212.821H0V255.317H512V212.821Z" fill="#D80027"/>
<path d="M512 297.824H0V340.32H512V297.824Z" fill="#D80027"/>
<path d="M256 0.330994H0V183.408H256V0.330994Z" fill="#0052B4"/>
<path d="M140.919 133.904C117.611 133.904 98.7171 115.083 98.7171 91.8671C98.7171 68.6514 117.612 49.8304 140.919 49.8304C148.186 49.8304 155.023 51.6612 160.994 54.8825C151.629 45.7604 138.821 40.1295 124.687 40.1295C96.0011 40.1295 72.7461 63.2934 72.7461 91.8671C72.7461 120.441 96.0021 143.605 124.687 143.605C138.82 143.605 151.629 137.974 160.994 128.852C155.024 132.073 148.186 133.904 140.919 133.904Z" fill="#FFDA44"/>
<path d="M152.811 62.3013L160.304 77.9079L177.224 74.0132L169.647 89.578L183.255 100.328L166.312 104.132L166.36 121.431L152.811 110.607L139.262 121.431L139.309 104.132L122.366 100.328L135.974 89.578L128.395 74.0132L145.317 77.9079L152.811 62.3013Z" fill="#FFDA44"/>
</svg>
