<svg width="512" height="341" viewBox="0 0 512 341" fill="none" xmlns="http://www.w3.org/2000/svg">
<path d="M512 0.337006H0V340.337H512V0.337006Z" fill="#D80027"/>
<path d="M196.641 0.337006V175.88V340.337H0V0.337006H196.641Z" fill="#6DA544"/>
<path d="M196.641 234.088C231.987 234.088 260.641 205.546 260.641 170.337C260.641 135.128 231.987 106.586 196.641 106.586C161.295 106.586 132.641 135.128 132.641 170.337C132.641 205.546 161.295 234.088 196.641 234.088Z" fill="#FFDA44"/>
<path d="M160.638 138.461V178.307C160.638 198.112 176.756 214.167 196.638 214.167C216.52 214.167 232.638 198.112 232.638 178.307V138.461H160.638Z" fill="#D80027"/>
<path d="M196.638 190.259C190.021 190.259 184.638 184.897 184.638 178.306V162.368H208.639V178.306C208.638 184.896 203.254 190.259 196.638 190.259Z" fill="#F0F0F0"/>
</svg>
