<svg width="512" height="341" viewBox="0 0 512 341" fill="none" xmlns="http://www.w3.org/2000/svg">
<path d="M512 0.339996H0V340.334H512V0.339996Z" fill="#338AF3"/>
<path d="M512 0.333984V166.373L0 170.508V0.333984H512Z" fill="#F0F0F0"/>
<path d="M323.744 117.639L256 185.119L188.256 117.639C179.496 130.594 174.377 146.186 174.377 162.945V185.119C174.377 220.724 197.474 251.054 229.525 262.031C225.248 270.383 225.969 280.805 232.237 288.598C240.563 281.951 249.182 275.071 256.495 269.235C263.808 275.071 272.427 281.952 280.753 288.598C287.095 280.714 287.764 270.136 283.317 261.735C314.931 250.518 337.625 220.412 337.625 185.119V162.945C337.623 146.185 332.504 130.595 323.744 117.639Z" fill="#6DA544"/>
<path d="M256 244.25C223.268 244.25 196.638 217.724 196.638 185.12V162.946C196.638 130.341 223.268 103.815 256 103.815C288.732 103.815 315.362 130.341 315.362 162.945V185.119C315.362 217.724 288.732 244.25 256 244.25Z" fill="#FFDA44"/>
<path d="M293.101 185.119V162.945C293.101 142.567 276.458 125.989 256 125.989C235.542 125.989 218.899 142.567 218.899 162.945V185.119L256 192.511L293.101 185.119Z" fill="#338AF3"/>
<path d="M218.899 185.119C218.899 205.497 235.542 222.075 256 222.075C276.458 222.075 293.101 205.497 293.101 185.119H218.899Z" fill="#6DA544"/>
<path d="M300.522 103.815C300.522 91.5676 290.556 81.6405 278.261 81.6405C272.558 81.6405 267.36 83.7781 263.421 87.2903V74.2484H270.842V59.4663H263.421V52.0743H248.581V59.4663H241.16V74.2484H248.581V87.2903C244.641 83.7781 239.443 81.6405 233.74 81.6405C221.445 81.6405 211.479 91.5676 211.479 103.815C211.479 110.38 214.346 116.278 218.9 120.339V133.381H293.103V120.339C297.655 116.278 300.522 110.381 300.522 103.815Z" fill="#FFDA44"/>
</svg>
