<svg width="512" height="341" viewBox="0 0 512 341" fill="none" xmlns="http://www.w3.org/2000/svg">
<path d="M512 0.337006H0V340.337H512V0.337006Z" fill="#F0F0F0"/>
<path d="M114.024 170.338L0 56.7062V283.99L114.024 170.338Z" fill="black"/>
<path d="M161.192 170.337L0 9.66364V56.7062L114.024 170.338L0 283.99V330.945L161.192 170.337Z" fill="#FFDA44"/>
<path d="M509.833 203.598C509.891 203.16 510.637 202.724 512 202.285V170.337V137.076H509.833H222.602L85.33 0.337006H0V9.66363L161.192 170.337L0 330.945V340.337H85.33L222.602 203.598H509.833V203.598Z" fill="#6DA544"/>
<path d="M503.181 236.861H236.433L132.552 340.337H512V236.861H503.181Z" fill="#0052B4"/>
<path d="M503.181 103.813H512V0.337006H132.552L236.433 103.813H503.181Z" fill="#D80027"/>
</svg>
