<svg width="512" height="341" viewBox="0 0 512 341" fill="none" xmlns="http://www.w3.org/2000/svg">
<path d="M512 0.333008H0V340.33H512V0.333008Z" fill="#F0F0F0"/>
<path d="M288 0.330017H224V138.452H0V202.2H224V340.322H288V202.2H512V138.452H288V0.330017Z" fill="#D80027"/>
<path d="M393.785 229.455L512 294.873V229.455H393.785Z" fill="#0052B4"/>
<path d="M311.652 229.455L512 340.322V308.972L368.307 229.455H311.652Z" fill="#0052B4"/>
<path d="M458.634 340.322L311.652 258.979V340.322H458.634Z" fill="#0052B4"/>
<path d="M311.652 229.455L512 340.322V308.972L368.307 229.455H311.652Z" fill="#F0F0F0"/>
<path d="M311.652 229.455L512 340.322V308.972L368.307 229.455H311.652Z" fill="#D80027"/>
<path d="M90.341 229.453L0 279.446V229.453H90.341Z" fill="#0052B4"/>
<path d="M200.348 243.551V340.321H25.491L200.348 243.551Z" fill="#0052B4"/>
<path d="M143.693 229.455L0 308.972V340.322L200.348 229.455H143.693Z" fill="#D80027"/>
<path d="M118.215 111.197L0 45.7789V111.197H118.215Z" fill="#0052B4"/>
<path d="M200.348 111.197L0 0.330017V31.6805L143.693 111.197H200.348Z" fill="#0052B4"/>
<path d="M53.366 0.330017L200.348 81.6734V0.330017H53.366Z" fill="#0052B4"/>
<path d="M200.348 111.197L0 0.330017V31.6805L143.693 111.197H200.348Z" fill="#F0F0F0"/>
<path d="M200.348 111.197L0 0.330017V31.6805L143.693 111.197H200.348Z" fill="#D80027"/>
<path d="M421.659 111.199L512 61.2061V111.199H421.659Z" fill="#0052B4"/>
<path d="M311.652 97.1006V0.330994H486.509L311.652 97.1006Z" fill="#0052B4"/>
<path d="M368.307 111.197L512 31.6805V0.330017L311.652 111.197H368.307Z" fill="#D80027"/>
</svg>
