<svg width="512" height="341" viewBox="0 0 512 341" fill="none" xmlns="http://www.w3.org/2000/svg">
<path d="M512 0.330994H0V340.331H512V0.330994Z" fill="#F0F0F0"/>
<path d="M512 42.8269H0V85.3228H512V42.8269Z" fill="#D80027"/>
<path d="M512 127.83H0V170.326H512V127.83Z" fill="#D80027"/>
<path d="M512 212.821H0V255.317H512V212.821Z" fill="#D80027"/>
<path d="M512 297.824H0V340.32H512V297.824Z" fill="#D80027"/>
<path d="M256 0.330994H0V183.408H256V0.330994Z" fill="#2E52B2"/>
<path d="M99.822 75.3291L95.699 87.9634H82.363L93.154 95.7677L89.031 108.401L99.822 100.597L110.606 108.401L106.484 95.7677L117.275 87.9634H103.938L99.822 75.3291Z" fill="#F0F0F0"/>
<path d="M103.938 133.556L99.822 120.923L95.699 133.556H82.363L93.154 141.361L89.031 153.995L99.822 146.189L110.606 153.995L106.484 141.361L117.275 133.556H103.938Z" fill="#F0F0F0"/>
<path d="M47.577 133.556L43.46 120.923L39.337 133.556H26.001L36.792 141.361L32.669 153.995L43.46 146.189L54.245 153.995L50.123 141.361L60.912 133.556H47.577Z" fill="#F0F0F0"/>
<path d="M43.46 75.3291L39.337 87.9634H26.001L36.792 95.7677L32.669 108.401L43.46 100.597L54.245 108.401L50.123 95.7677L60.912 87.9634H47.577L43.46 75.3291Z" fill="#F0F0F0"/>
<path d="M99.822 29.7344L95.699 42.3697H82.363L93.154 50.175L89.031 62.8083L99.822 55.003L110.606 62.8083L106.484 50.175L117.275 42.3697H103.938L99.822 29.7344Z" fill="#F0F0F0"/>
<path d="M43.46 29.7344L39.337 42.3697H26.001L36.792 50.175L32.669 62.8083L43.46 55.003L54.245 62.8083L50.123 50.175L60.912 42.3697H47.577L43.46 29.7344Z" fill="#F0F0F0"/>
<path d="M156.183 75.3291L152.061 87.9634H138.725L149.515 95.7677L145.394 108.401L156.183 100.597L166.969 108.401L162.846 95.7677L173.637 87.9634H160.301L156.183 75.3291Z" fill="#F0F0F0"/>
<path d="M160.301 133.556L156.183 120.923L152.061 133.556H138.725L149.515 141.361L145.394 153.995L156.183 146.189L166.969 153.995L162.846 141.361L173.637 133.556H160.301Z" fill="#F0F0F0"/>
<path d="M216.663 133.556L212.546 120.923L208.423 133.556H195.088L205.877 141.361L201.755 153.995L212.546 146.189L223.331 153.995L219.208 141.361L229.999 133.556H216.663Z" fill="#F0F0F0"/>
<path d="M212.546 75.3291L208.423 87.9634H195.088L205.877 95.7677L201.755 108.401L212.546 100.597L223.331 108.401L219.208 95.7677L229.999 87.9634H216.663L212.546 75.3291Z" fill="#F0F0F0"/>
<path d="M156.183 29.7344L152.061 42.3697H138.725L149.515 50.175L145.394 62.8083L156.183 55.003L166.969 62.8083L162.846 50.175L173.637 42.3697H160.301L156.183 29.7344Z" fill="#F0F0F0"/>
<path d="M212.546 29.7344L208.423 42.3697H195.088L205.877 50.175L201.755 62.8083L212.546 55.003L223.331 62.8083L219.208 50.175L229.999 42.3697H216.663L212.546 29.7344Z" fill="#F0F0F0"/>
</svg>
