<!DOCTYPE svg PUBLIC "-//W3C//DTD SVG 1.1//EN" "http://www.w3.org/Graphics/SVG/1.1/DTD/svg11.dtd">
<svg version="1.1" xmlns="http://www.w3.org/2000/svg" xmlns:xlink="http://www.w3.org/1999/xlink" x="0" y="0" width="3400" height="540" viewBox="0, 0, 3400, 540">

  <!-- drapeau -->
  <g fill="#f8f9fa">
    <path d="M1664.711,520 C1675.377,520 1684,512.889 1686.267,502.222 L1712.719,377.778 C1714.986,367.111 1709.386,360 1698.72,360 L1520.942,360 C1510.275,360 1501.653,367.111 1499.385,377.778 L1472.934,502.222 C1470.667,512.889 1476.266,520 1486.933,520 L1664.711,520 z"/>
    <path d="M1147.609,360 L1272.053,360 C1282.72,360 1288.319,367.111 1286.052,377.778 L1270.937,448.889 C1268.67,459.556 1260.047,466.667 1249.38,466.667 L1124.936,466.667 C1114.269,466.667 1108.67,459.556 1110.937,448.889 L1126.052,377.778 C1128.319,367.111 1136.942,360 1147.609,360 z"/>
    <path d="M1577.624,93.333 L1702.068,93.333 C1712.735,93.333 1718.334,100.444 1716.067,111.111 L1700.952,182.222 C1698.685,192.889 1690.062,200 1679.396,200 L1554.951,200 C1544.284,200 1538.685,192.889 1540.952,182.222 L1556.067,111.111 C1558.334,100.444 1566.957,93.333 1577.624,93.333 z"/>
    <path d="M1306.062,200 C1316.729,200 1325.352,192.889 1327.619,182.222 L1354.07,57.778 C1356.338,47.111 1350.738,40 1340.071,40 L1162.293,40 C1151.627,40 1143.004,47.111 1140.737,57.778 L1114.285,182.222 C1112.018,192.889 1117.618,200 1128.285,200 L1306.062,200 z"/>
    <path d="M1485.386,360 C1496.053,360 1504.676,352.889 1506.943,342.222 L1533.395,217.778 C1535.662,207.111 1530.062,200 1519.396,200 L1341.618,200 C1330.951,200 1322.328,207.111 1320.061,217.778 L1293.61,342.222 C1291.342,352.889 1296.942,360 1307.609,360 L1485.387,360 z"/>
  </g>

  <!-- mgp -->
  <g fill="#f8f9fa">
    <path d="M39.758,180 C40.821,175 41.884,170 47.946,165 C54.009,160 120.7,105 126.762,100 C132.825,95 137.825,95 142.825,95 L407.825,95 C422.825,95 430.7,105 427.511,120 L385,320 L310,320 L341.884,170 L266.883,170 L235,320 L160,320 L191.883,170 L116.884,170 L85,320 L10,320 L39.758,180 z"/>
    <path d="M435,320 C420,320 412.126,310 415.314,295 L439.758,180 C440.821,175 441.884,170 447.946,165 C454.009,160 520.7,105 526.762,100 C532.825,95 537.825,95 542.825,95 L732.825,95 C747.825,95 755.7,105 752.511,120 L696.184,385 C695.121,390 694.058,395 687.995,400 C681.933,405 615.242,460 609.179,465 C603.116,470 598.116,470 593.116,470 L378.117,470 L394.058,395 L619.058,395 L666.883,170 L516.883,170 L500.942,245 L625.942,245 L610,320 L435,320 z"/>
    <path d="M1053.067,235 L1077.511,120 C1080.699,105 1072.825,95 1057.825,95 L867.825,95 C862.825,95 857.825,95 851.762,100 C845.699,105 779.009,160 772.946,165 C766.883,170 765.82,175 764.758,180 L703.116,470 L778.116,470 L841.883,170 L991.883,170 L975.942,245 L850.942,245 L835,320 L950,320 C955,320 960,320 966.063,315 C972.125,310 1038.816,255 1044.879,250 C1050.942,245 1052.004,240 1053.067,235 z"/>
  </g>

  <!-- battle -->
  <g fill="#f8f9fa">
    <path d="M2066.183,385 L2090.627,270 C2093.816,255 2085.941,245 2070.941,245 L1895.941,245 L1880,320 L2005,320 L1989.058,395 L1839.058,395 L1902.825,95 L1827.825,95 L1753.43,445 C1750.241,460 1758.116,470 1773.116,470 L1963.116,470 C1968.116,470 1973.116,470 1979.179,465 C1985.242,460 2051.932,405 2057.995,400 C2064.058,395 2065.12,390 2066.183,385"/>
    <path d="M2098.116,470 C2083.116,470 2075.242,460 2078.43,445 L2102.874,330 C2103.937,325 2105,320 2111.063,315 C2117.125,310 2183.816,255 2189.879,250 C2195.941,245 2200.941,245 2205.941,245 L2395.942,245 C2410.942,245 2418.816,255 2415.628,270 L2373.116,470 L2298.116,470 L2330,320 L2180,320 L2164.058,395 L2289.058,395 L2273.116,470 L2098.116,470"/>
    <path d="M2520.941,245 L2552.825,95 L2477.825,95 L2403.43,445 C2400.242,460 2408.116,470 2423.116,470 L2623.116,470 L2639.058,395 L2489.058,395 L2505,320 L2605,320 L2620.941,245 L2520.941,245"/>
    <path d="M2989.058,395 L3052.825,95 L2977.825,95 L2903.43,445 C2900.242,460 2908.116,470 2923.116,470 L3048.116,470 L3064.058,395 L2989.058,395"/>
    <path d="M2770.941,245 L2802.825,95 L2727.825,95 L2653.43,445 C2650.241,460 2658.116,470 2673.116,470 L2873.116,470 L2889.058,395 L2739.058,395 L2755,320 L2855,320 L2870.941,245 L2770.941,245"/>
    <path d="M3098.116,470 C3083.116,470 3075.241,460 3078.43,445 L3102.874,330 C3103.937,325 3105,320 3111.062,315 C3117.125,310 3183.816,255 3189.879,250 C3195.941,245 3200.941,245 3205.941,245 L3320.941,245 C3335.941,245 3343.816,255 3340.627,270 L3319.372,370 L3244.372,370 L3255,320 L3180,320 L3164.058,395 L3389.058,395 L3373.116,470 L3098.116,470"/>
  </g>

</svg>
